<?xml version="1.0" standalone="no"?><!DOCTYPE svg PUBLIC "-//W3C//DTD SVG 1.1//EN" "http://www.w3.org/Graphics/SVG/1.1/DTD/svg11.dtd"><svg t="1768635860755" class="icon" viewBox="0 0 1024 1024" version="1.1" xmlns="http://www.w3.org/2000/svg" p-id="136832" xmlns:xlink="http://www.w3.org/1999/xlink" width="200" height="200"><path d="M512 0a512 512 0 1 1 0 1024 512 512 0 0 1 0-1024z" fill="#355691" fill-opacity=".1" p-id="136833"></path><path d="M473.088 836.3008l-6.9632-3.584-201.6256-113.732267a89.4976 89.4976 0 0 1-45.499733-70.382933v-99.669333l-4.3008-1.979734a59.255467 59.255467 0 0 1-33.8944-66.56 60.962133 60.962133 0 0 1 116.872533-5.461333 58.2656 58.2656 0 0 1-22.357333 66.218667l-3.072 2.2528v97.962666a36.693333 36.693333 0 0 0 14.2336 29.184l4.3008 3.003734 202.274133 114.039466c5.802667 3.345067 12.356267 5.12 19.0464 5.12 4.778667 0 9.557333-0.8192 14.0288-2.491733l4.676267-2.2528 234.632533-132.266667a27.511467 27.511467 0 0 1 13.380267-3.584 26.385067 26.385067 0 0 1 26.282666 30.1056 25.6 25.6 0 0 1-9.693866 16.349867l-3.413334 2.1504-234.120533 132.061867c-13.994667 7.7824-29.696 11.8784-45.738667 11.8784a92.842667 92.842667 0 0 1-39.048533-8.362667z m59.050667-206.2336l-17.681067-53.5552H430.08l-17.6128 53.5552H358.4l84.445867-234.9056h57.856l85.6064 234.9056H532.138667z m-62.941867-174.8992l-26.4192 81.92h61.44l-26.453333-81.92a232.618667 232.618667 0 0 1-3.7888-20.48h-1.194667a122.333867 122.333867 0 0 1-3.515733 20.514133l-0.068267-0.034133z m147.319467 173.738667v-235.042134h49.0496v235.008h-49.0496z m110.830933-114.824534a58.709333 58.709333 0 0 1 21.572267-68.881066l3.106133-2.1504V382.293333a37.034667 37.034667 0 0 0-14.267733-29.149866l-4.437334-2.901334-202.274133-114.141866a39.355733 39.355733 0 0 0-32.9728-2.525867l-4.778667 2.2528-234.666666 132.4032a27.2384 27.2384 0 0 1-35.396267-7.9872 25.6 25.6 0 0 1 5.597867-34.9184l3.413333-2.2528L466.193067 191.146667a92.740267 92.740267 0 0 1 77.755733-6.314667l6.929067 2.8672 6.894933 3.413333 201.6256 113.834667a89.019733 89.019733 0 0 1 45.4656 70.417067v62.122666l4.437333 1.911467a59.1872 59.1872 0 0 1 34.372267 63.6928 60.074667 60.074667 0 0 1-53.930667 49.0496 46.250667 46.250667 0 0 1-5.802666 0 60.962133 60.962133 0 0 1-56.5248-37.9904l-0.068267-0.068267z" fill="#355691" p-id="136834"></path></svg>