<?xml version="1.0" standalone="no"?><!DOCTYPE svg PUBLIC "-//W3C//DTD SVG 1.1//EN" "http://www.w3.org/Graphics/SVG/1.1/DTD/svg11.dtd"><svg t="1768627104422" class="icon" viewBox="0 0 1024 1024" version="1.1" xmlns="http://www.w3.org/2000/svg" p-id="63795" xmlns:xlink="http://www.w3.org/1999/xlink" width="200" height="200"><path d="M987.428571 329.142857a36.571429 36.571429 0 0 1 36.571429 36.571429v365.714285c0 153.6-102.4 256-256 256h-438.857143a36.571429 36.571429 0 1 1 0-73.142857h438.857143c113.371429 0 182.857143-73.142857 182.857143-182.857143V365.714286a36.571429 36.571429 0 0 1 36.571428-36.571429zM731.428571 36.571429c76.8 0 140.288 59.977143 145.846858 135.387428L877.714286 182.857143v512c0 76.8-59.977143 140.288-135.387429 145.846857L731.428571 841.142857H146.285714C69.485714 841.142857 5.997714 781.165714 0.438857 705.755429L0 694.857143v-512C0 106.057143 59.977143 42.569143 135.387429 37.010286L146.285714 36.571429h585.142857zM624.932571 286.500571l-5.12 4.242286-232.667428 232.740572-129.316572-129.316572a36.571429 36.571429 0 0 0-55.954285 46.665143l4.242285 5.12 155.136 155.062857a36.571429 36.571429 0 0 0 46.665143 4.242286l5.12-4.169143 258.56-258.633143a36.571429 36.571429 0 0 0-46.665143-55.954286z" fill="#1296db" p-id="63796"></path></svg>
