<?xml version="1.0" standalone="no"?><!DOCTYPE svg PUBLIC "-//W3C//DTD SVG 1.1//EN" "http://www.w3.org/Graphics/SVG/1.1/DTD/svg11.dtd"><svg t="1768626373025" class="icon" viewBox="0 0 1024 1024" version="1.1" xmlns="http://www.w3.org/2000/svg" p-id="41773" xmlns:xlink="http://www.w3.org/1999/xlink" width="200" height="200"><path d="M984.516239 0H39.483761A39.483761 39.483761 0 0 0 0 39.483761v945.032478a39.483761 39.483761 0 0 0 39.483761 39.483761h945.032478a39.483761 39.483761 0 0 0 39.483761-39.483761V39.483761A39.483761 39.483761 0 0 0 984.516239 0zM737.19359 953.836903l-55.82187-55.840023 67.694228-67.694228H117.107928v-78.967522h645.536803l-67.694228-67.694228 55.82187-55.840023 156.22862 156.22862z m169.807403-394.964686H261.409729l67.712381 67.694227-55.840022 55.840023-156.1197-156.22862L286.824564 356.388597l55.840023 55.840023-67.712382 67.694228h632.048788z m-169.807403-147.878032l-55.82187-55.840022 67.694228-67.694228H117.107928v-78.967523h645.536803l-67.694228-67.694227 55.82187-55.840023 156.22862 156.22862z" fill="#1890FF" p-id="41774"></path></svg>