<?xml version="1.0" standalone="no"?><!DOCTYPE svg PUBLIC "-//W3C//DTD SVG 1.1//EN" "http://www.w3.org/Graphics/SVG/1.1/DTD/svg11.dtd"><svg t="1768626653666" class="icon" viewBox="0 0 1024 1024" version="1.1" xmlns="http://www.w3.org/2000/svg" p-id="46310" xmlns:xlink="http://www.w3.org/1999/xlink" width="200" height="200"><path d="M554.059636 553.751273v188.439272L486.382545 809.890909l12.497455 12.520727-60.346182 60.346182-298.705454-298.821818L200.151273 523.543273l12.520727 12.497454 67.677091-67.723636h188.369454v-188.416l67.677091-67.723636-12.497454-12.497455 60.322909-60.369455 298.728727 298.821819-60.346182 60.392727-12.497454-12.520727-67.677091 67.723636h-188.369455z m274.850909 360.378182c-200.797091 158.673455-493.754182 145.570909-679.098181-39.889455-199.68-199.68-199.796364-524.730182-0.069819-724.386909 199.633455-199.796364 524.497455-199.796364 724.224 0A510.324364 510.324364 0 0 1 1024.005818 512.302545l-0.046545 0.41891h-85.643637c0-4.142545 0.302545-8.261818 0.162909-12.404364A425.448727 425.448727 0 0 0 813.620364 210.222545c-166.423273-166.516364-437.201455-166.516364-603.554909 0-166.330182 166.4-166.260364 437.248 0.09309 603.648 151.970909 152.110545 390.772364 164.840727 557.754182 39.191273l-85.806545-85.853091h213.364363v213.457455l-66.56-66.56z" fill="#00BF3A" p-id="46311"></path></svg>