<?xml version="1.0" standalone="no"?><!DOCTYPE svg PUBLIC "-//W3C//DTD SVG 1.1//EN" "http://www.w3.org/Graphics/SVG/1.1/DTD/svg11.dtd"><svg t="1768626758208" class="icon" viewBox="0 0 1024 1024" version="1.1" xmlns="http://www.w3.org/2000/svg" p-id="51756" xmlns:xlink="http://www.w3.org/1999/xlink" width="200" height="200"><path d="M240.853 810.667a250.325 250.325 0 0 0 100.139-213.334H0.342A250.325 250.325 0 0 0 100.48 810.667 250.325 250.325 0 0 0 0.341 1024h340.651a250.325 250.325 0 0 0-100.139-213.333zM65.365 654.976h210.603c-15.573 67.925-57.856 120.448-105.301 120.448-47.446 0-90.368-51.883-105.302-120.448z m0 312.661c15.574-67.925 58.496-119.85 105.302-119.85s89.728 50.602 105.301 119.808H65.365z" fill="#1AC4BF" p-id="51757"></path><path d="M509.099 0C226.987 3.157 0 231.467 0 512v9.6h331.477a68.693 68.693 0 0 1 68.864 68.48 340.608 340.608 0 0 1-84.309 234.24 330.667 330.667 0 0 1 83.03 183.68c36.01 9.173 72.917 14.507 110.08 16C793.428 1024 1024 794.752 1024 512S793.472 0 509.099 0z m6.912 938.752a459.863 459.863 0 0 1-62.294 0 382.933 382.933 0 0 0-56.661-130.09 396.672 396.672 0 0 0 68.523-226.689A124.245 124.245 0 0 0 340.992 458.07H79.957C105.43 217.856 321.877 43.691 563.456 68.992 804.992 94.336 980.181 309.547 954.709 549.76c-23.637 223.019-213.12 392.107-438.698 391.467v-2.475z" fill="#4571F6" p-id="51758"></path><path d="M568.107 463.232v-243.2c2.304-13.312-29.654-25.77-45.056-27.733-15.36-2.048-29.739 7.168-32.086 20.48a21.12 21.12 0 0 0 0 7.253v288.896c0 13.483 12.63 24.405 28.203 24.405h220.587c15.616 0 28.245-10.922 28.245-24.405 0-13.44-12.63-45.696-28.203-45.696h-171.69z" fill="#4571F6" p-id="51759"></path></svg>