<?xml version="1.0" standalone="no"?><!DOCTYPE svg PUBLIC "-//W3C//DTD SVG 1.1//EN" "http://www.w3.org/Graphics/SVG/1.1/DTD/svg11.dtd"><svg t="1768629346303" class="icon" viewBox="0 0 1024 1024" version="1.1" xmlns="http://www.w3.org/2000/svg" p-id="98388" id="mx_n_1768629346307" xmlns:xlink="http://www.w3.org/1999/xlink" width="200" height="200"><path d="M752 393.373c-12.372 12.371-12.496 32.353-0.371 44.877l0.371 0.377L793.373 480H160c-17.673 0-32 14.327-32 32 0 17.496 14.042 31.713 31.47 31.996l0.53 0.004h633.373L752 585.373c-12.372 12.371-12.496 32.353-0.371 44.877l0.371 0.377c12.372 12.372 32.354 12.496 44.878 0.372l0.377-0.372 84.686-84.686c18.558-18.558 18.743-48.53 0.557-67.316l-0.557-0.566-84.686-84.686c-12.497-12.497-32.758-12.497-45.255 0z" fill="#1ED760" p-id="98389"></path></svg>