<?xml version="1.0" standalone="no"?><!DOCTYPE svg PUBLIC "-//W3C//DTD SVG 1.1//EN" "http://www.w3.org/Graphics/SVG/1.1/DTD/svg11.dtd"><svg t="1768629425423" class="icon" viewBox="0 0 1024 1024" version="1.1" xmlns="http://www.w3.org/2000/svg" p-id="101119" data-spm-anchor-id="a313x.search_index.0.i46.79323a814AFebp" xmlns:xlink="http://www.w3.org/1999/xlink" width="200" height="200"><path d="M136.3 855c-12.7-15.3-10.7-38 4.6-50.7L491.8 512 141 219.7c-15.3-12.7-17.3-35.4-4.6-50.7 12.7-15.3 35.4-17.3 50.7-4.6l384 320c8.2 6.8 13 17 13 27.7s-4.7 20.8-13 27.7l-384 320c-6.7 5.6-14.9 8.3-23 8.3-10.4-0.1-20.6-4.5-27.8-13.1zM476 868c8.1 0 16.3-2.7 23-8.3l384-320c8.2-6.8 13-17 13-27.7s-4.7-20.8-13-27.7l-384-320c-15.3-12.7-38-10.7-50.7 4.6-12.7 15.3-10.7 38 4.6 50.7L803.8 512 453 804.3c-15.3 12.7-17.3 35.4-4.6 50.7 7.1 8.6 17.3 13 27.6 13z" fill="#1ED760" p-id="101120"></path></svg>