<?xml version="1.0" standalone="no"?><!DOCTYPE svg PUBLIC "-//W3C//DTD SVG 1.1//EN" "http://www.w3.org/Graphics/SVG/1.1/DTD/svg11.dtd"><svg t="1768638348884" class="icon" viewBox="0 0 1024 1024" version="1.1" xmlns="http://www.w3.org/2000/svg" p-id="174301" xmlns:xlink="http://www.w3.org/1999/xlink" width="200" height="200"><path d="M0 0h1024v1024H0V0z" fill="#16A353" opacity=".01" p-id="174302"></path><path d="M501.998933 624.401067a34.133333 34.133333 0 0 1-48.264533 0l-112.128-112.128a688.059733 688.059733 0 0 0-15.9744-15.2576C288.324267 462.062933 239.581867 416.426667 244.462933 332.117333c2.901333-49.2544 13.0048-90.077867 22.3232-118.340266 4.949333-15.086933-10.3424-29.866667-23.552-21.0944-67.857067 44.919467-137.728 130.048-159.914666 196.164266-26.692267 79.633067-30.173867 244.292267 88.439466 362.939734l77.2096 77.380266a34.133333 34.133333 0 0 1 0 48.2304l-49.152 49.152a17.066667 17.066667 0 0 0 12.049067 29.149867H546.133333a34.133333 34.133333 0 0 0 34.133334-34.133333v-334.267734a17.066667 17.066667 0 0 0-29.149867-12.049066l-49.117867 49.117866z" fill="#16A353" p-id="174303"></path><path d="M522.001067 399.598933a34.133333 34.133333 0 0 1 48.264533 0l112.128 112.128c4.9152 4.9152 10.308267 9.966933 15.9744 15.2576 37.307733 34.952533 86.050133 80.5888 81.169067 164.864a468.957867 468.957867 0 0 1-22.3232 118.340267c-4.949333 15.086933 10.3424 29.866667 23.552 21.0944 67.857067-44.919467 137.728-130.048 159.914666-196.164267 26.692267-79.633067 30.173867-244.292267-88.439466-362.939733l-77.2096-77.380267a34.133333 34.133333 0 0 1 0-48.2304l49.152-49.152A17.066667 17.066667 0 0 0 812.1344 68.266667H477.866667a34.133333 34.133333 0 0 0-34.133334 34.133333v334.267733a17.066667 17.066667 0 0 0 29.149867 12.049067l49.117867-49.117867z" fill="#16A353" p-id="174304"></path></svg>