<?xml version="1.0" standalone="no"?><!DOCTYPE svg PUBLIC "-//W3C//DTD SVG 1.1//EN" "http://www.w3.org/Graphics/SVG/1.1/DTD/svg11.dtd"><svg t="1768629213105" class="icon" viewBox="0 0 1024 1024" version="1.1" xmlns="http://www.w3.org/2000/svg" p-id="95237" xmlns:xlink="http://www.w3.org/1999/xlink" width="200" height="200"><path d="M897.004 748.12c-31.092-14.432-22.212-43.38-20.176-48.876l0.596-1.776a516.8 516.8 0 0 0 20.772-172.108c-11.1-191.28-139.008-296.8-182.464-327.32 24.696-62.336 59.492-93.248 59.812-93.528l24.592-21.16-29.944-12.476c-79.22-33.008-142.832-18.596-182.248-0.696a222.136 222.136 0 0 0-59.016 39.2c-160.836-35.78-284.452-26.708-367.516 26.988-49.1 31.744-69.6 70.768-77.156 89.916C53.408 236.524 12 261.06 12 302.372 12 327.4 22.716 342.3 31.708 350.4c23.252 20.944 57.296 18.032 61.108 17.64l0.4-0.048c105.284-13.268 253.876 24.484 291.808 34.84a270.188 270.188 0 0 0 20.724 39.052c37.28 57.784 90.828 87.732 156.064 87.732a230.592 230.592 0 0 0 29.64-1.964l35.756-4.672-22.892-27.892a310.924 310.924 0 0 1-39.224-69.104c83.756 26.204 138.652 65.876 163.4 118.216 33.2 70.172-0.216 141.32-0.532 141.98l-0.072 0.148c-1.7 2.056-15.328 16.436-71.024 26.868-125.68 23.552-159.044 136.844-160.4 141.656l-6.672 23.6 24.472 1.776c0.504 0.036 50.684 3.648 100.976 4.872 99.628 2.4 118.176-4.864 124.168-23.228 5.488-16.8 17.704-22.456 27.428-20.616 11.256 2.132 17.376 13.6 16.368 30.668-1.024 17.336 15.516 25.832 40.868 36.8 15.852 6.868 37.872 15.372 65.448 25.268 46.572 16.72 93.856 31.968 94.324 32.12l20.976 6.752 4.704-21.524c0.312-1.34 28.348-137.836-112.52-203.22z m-73.756 116.14c-1.62-36.84-24.904-57.744-48.952-62.3-25.12-4.768-56.124 7.748-70.188 40.308-20.8 4.836-91.756 3.86-159.244-0.116a166.756 166.756 0 0 1 119.38-89.628c76.652-14.36 95.484-38.432 100.096-49.66 4.552-9.764 40.032-91.156 0.588-175.232-32.4-69.048-104.96-118.748-215.776-147.84a345.928 345.928 0 0 1-7.6-34.868l-39.488 6.44a397.76 397.76 0 0 0 50.104 137.9c-121.18-7.496-145.792-148.452-146.86-154.96l-39.504 6.36c0.116 0.72 1.148 6.944 3.644 16.704-60.436-15.072-184.648-41.148-280.88-29.112-5.368 0.448-21.768 0-30.168-7.664-1.58-1.44-6.4-5.824-6.4-18.22 0-22.172 39-36.948 52.616-40.372l11.672-3.024 2.964-11.6c0.464-1.828 12.044-45.096 66.592-79.124 52.02-32.444 154.096-61.8 344.936-17.408l11.736 2.656 7.9-9.02c2.956-3.368 68.4-76.212 176.78-46.244a336.568 336.568 0 0 0-54.652 101.3l-5.236 15.392 13.968 8.304c1.652 0.98 165.132 100.428 176.98 304.452a476.528 476.528 0 0 1-19.064 157.96c-8.972 24.088-11.6 74.372 40.968 98.772 80.8 37.504 92.328 101.848 92.244 135.892-63.168-20.944-129.044-45.08-149.156-56.048z" fill="#03B000" p-id="95238"></path><path d="M202.512 252.096m-20 0a20 20 0 1 0 40 0 20 20 0 1 0-40 0Z" fill="#03B000" p-id="95239"></path></svg>
