<?xml version="1.0" standalone="no"?><!DOCTYPE svg PUBLIC "-//W3C//DTD SVG 1.1//EN" "http://www.w3.org/Graphics/SVG/1.1/DTD/svg11.dtd"><svg t="1768632783716" class="icon" viewBox="0 0 1024 1024" version="1.1" xmlns="http://www.w3.org/2000/svg" p-id="110552" xmlns:xlink="http://www.w3.org/1999/xlink" width="200" height="200"><path d="M512 0c282.758334 0 512 229.241666 512 512s-229.241666 512-512 512S0 794.758334 0 512 229.241666 0 512 0z m0 73.149456c-22.196599 0-44.023639 1.639915-65.319439 4.850454-4.573285 9.931881-7.830018 20.810755-7.830017 31.712726 0 36.586277-36.56318-36.56318-73.126359 36.586277-36.586277 73.126359 0 0 0 73.126359 0 36.586277-52.939234 10.11666-36.586277 18.293138 36.586277 18.293138 36.586277 18.293138 0 54.856318 0 0-73.126359-36.56318-73.126359 0S219.425272 329.137908 182.862092 329.137908c-36.56318 0 0 73.149456-36.563179 73.149456-28.13263 0-13.003835-43.238327-37.764244-63.217576-9.400641 21.91943-17.092074 44.762755-22.866423 68.368296 24.66802 22.058014 28.802454 109.296883 60.630667 141.125096 36.56318-36.56318 36.56318 0 73.126359 0 36.586277 0 36.586277 0 54.856318 36.586276 36.586277 0 54.856318 36.56318 91.442595 73.126359 36.56318 36.586277 109.712636 36.586277 109.712635 73.149457 0 36.56318-36.586277 0-36.586276 73.149456 0 36.56318 0 36.56318-36.56318 36.56318-23.028105 0-46.05621 43.492399-59.960843 75.713267a437.510895 437.510895 0 0 0 169.673479 33.999369 437.510895 437.510895 0 0 0 313.524067-131.793748l-20.949339-41.921775s45.709749-73.126359 9.123472-109.712636c-36.56318-36.56318-36.56318-73.126359-36.563179-73.126359s-73.126359 73.126359-109.712636 36.563179c-36.56318-36.586277-36.56318 0-73.126359-73.149456-36.586277-73.126359 36.56318-109.712636 36.563179-109.712636s0-73.126359 36.56318-73.126359c36.586277 0 73.149456-73.149456 146.298912 0 0 0 42.268237-28.178824 102.044301-35.084946a439.15081 439.15081 0 0 0-75.759463-119.321153 43.931249 43.931249 0 0 1-26.307935 8.107186c-36.56318 0 36.586277 73.149456 0 73.149456-36.56318 0-36.56318-36.586277-73.126359-36.586276-36.586277 0-36.586277 36.586277-73.149456 73.149456-36.56318 36.586277 0 0-36.56318-36.56318-36.586277-36.586277 73.126359 0 36.56318-36.586276-36.56318-36.56318 36.586277-36.56318 36.586277-73.126359 0-28.686967 44.970632-34.87707 64.395542-36.216719-21.111021-15.221185-43.630983-28.594578-64.395542-36.932738 36.56318 36.586277-36.586277 73.149456-73.149457 73.149457-34.368927 0-4.157531-64.534127-0.392656-102.66793a439.243199 439.243199 0 0 0-118.466549-16.191276z m-438.850544 438.850544a437.718771 437.718771 0 0 0 144.428024 325.442324L182.862092 767.988451c-36.56318 0-54.856318-82.272928-54.856318-118.836107 0-29.356792-11.779672-52.823747 2.471422-79.847702-51.599585-51.807462-20.76456-23.721027-20.76456-57.304642 0-17.415437-16.560834-34.830875-33.953174-48.27356a443.285244 443.285244 0 0 0-2.610006 48.27356z" fill="#238efe" p-id="110553"></path></svg>