<?xml version="1.0" standalone="no"?><!DOCTYPE svg PUBLIC "-//W3C//DTD SVG 1.1//EN" "http://www.w3.org/Graphics/SVG/1.1/DTD/svg11.dtd"><svg t="1768626848768" class="icon" viewBox="0 0 1035 1024" version="1.1" xmlns="http://www.w3.org/2000/svg" p-id="59677" xmlns:xlink="http://www.w3.org/1999/xlink" width="202.1484375" height="200"><path d="M517.776912 1011.19015a41.861983 41.861983 0 0 1-41.861983-41.861983V741.208268a41.861983 41.861983 0 0 1 83.723966 0v228.119899a41.861983 41.861983 0 0 1-41.861983 41.861983zM517.776912 662.605418a41.861983 41.861983 0 0 1-41.861983-41.861982v-32.094187a41.861983 41.861983 0 0 1 83.723966 0v32.094187a41.861983 41.861983 0 0 1-41.861983 41.861982z" fill="#1296db" p-id="59678"></path><path d="M517.52574 1023.999916a41.680581 41.680581 0 0 1-29.596422-12.251607l-132.562946-132.562945a41.861983 41.861983 0 1 1 59.192844-59.206798l132.562946 132.562946a41.861983 41.861983 0 0 1-29.596422 71.458404z" fill="#1296db" p-id="59679"></path><path d="M517.860636 1023.999916a41.861983 41.861983 0 0 1-29.596422-71.458404l132.562946-132.562946a41.861983 41.861983 0 1 1 59.192843 59.206798l-132.562945 132.562945a41.680581 41.680581 0 0 1-29.596422 12.251607zM1035.386376 204.50974v182.197303a98.780326 98.780326 0 0 1-98.682648 98.668694H98.682648A98.780326 98.780326 0 0 1 0 386.707043V204.50974a98.780326 98.780326 0 0 1 98.682648-98.668693h376.339225a59.751004 59.751004 0 0 0 8.149133 83.723965H98.682648A14.958682 14.958682 0 0 0 83.723966 204.50974v182.197303a14.958682 14.958682 0 0 0 14.958682 14.944728h838.02108A14.958682 14.958682 0 0 0 951.66241 386.707043V204.50974a14.958682 14.958682 0 0 0-14.958682-14.944728h-126.409234a41.861983 41.861983 0 0 1 0-83.723965h126.409234A98.780326 98.780326 0 0 1 1035.386376 204.50974z" fill="#1296db" p-id="59680"></path><path d="M521.446812 41.861983a101.724618 101.724618 0 1 0 101.710665 101.76648A101.710664 101.710664 0 0 0 521.446812 41.861983z m0 161.5733a59.862635 59.862635 0 1 1 59.848682-59.80682 59.59751 59.59751 0 0 1-59.848682 59.80682z" fill="#1296db" p-id="59681"></path><path d="M521.446812 0a143.586601 143.586601 0 1 0 143.572647 143.628463A143.823819 143.823819 0 0 0 521.446812 0z m0 203.435283a59.862635 59.862635 0 1 1 59.848682-59.80682 59.59751 59.59751 0 0 1-59.848682 59.80682z" fill="#1296db" p-id="59682"></path></svg>