<?xml version="1.0" standalone="no"?><!DOCTYPE svg PUBLIC "-//W3C//DTD SVG 1.1//EN" "http://www.w3.org/Graphics/SVG/1.1/DTD/svg11.dtd"><svg t="1768624143815" class="icon" viewBox="0 0 1024 1024" version="1.1" xmlns="http://www.w3.org/2000/svg" p-id="4777" xmlns:xlink="http://www.w3.org/1999/xlink" width="200" height="200"><path d="M489.941333 96.576c-7.466667 0.384-14.933333 0.981333-22.378666 1.770667a10.581333 10.581333 0 0 0-9.109334 7.594666 10.581333 10.581333 0 0 0 5.290667 12.458667 10.645333 10.645333 0 0 0 6.08 1.152c7.04-0.746667 14.122667-1.301333 21.226667-1.664A10.624 10.624 0 0 0 501.162667 106.666667a10.56 10.56 0 0 0-7.104-9.493334 10.56 10.56 0 0 0-4.117334-0.597333z m67.733334 1.92a418.133333 418.133333 0 0 0-22.357334-1.856 10.56 10.56 0 0 0-10.218666 6.037333 10.581333 10.581333 0 0 0 3.2 13.141334 10.56 10.56 0 0 0 5.824 2.133333c7.104 0.384 14.186667 0.96 21.226666 1.728a10.56 10.56 0 0 0 10.517334-5.461333 10.56 10.56 0 0 0-1.045334-11.818667 10.773333 10.773333 0 0 0-7.146666-3.925333z m-133.802667 6.848c-7.125333 1.557333-14.208 3.264-21.248 5.184a10.624 10.624 0 0 0-7.488 13.098667 10.581333 10.581333 0 0 0 8.938667 7.786666c1.408 0.170667 2.773333 0.064 4.16-0.298666 6.656-1.813333 13.376-3.456 20.138666-4.906667a10.56 10.56 0 0 0 8.256-8.533333 10.56 10.56 0 0 0-4.714666-10.858667 10.666667 10.666667 0 0 0-8.042667-1.472z m198.677333 5.504c-7.04-1.92-14.122667-3.669333-21.226666-5.226667a10.56 10.56 0 0 0-11.050667 4.309334 10.56 10.56 0 0 0-0.213333 11.861333 10.709333 10.709333 0 0 0 6.698666 4.672c6.762667 1.472 13.461333 3.114667 20.117334 4.949333a10.56 10.56 0 0 0 11.264-3.733333 10.581333 10.581333 0 0 0-0.362667-13.525333 10.666667 10.666667 0 0 0-5.226667-3.306667z m-261.056 13.226667c-6.784 2.624-13.504 5.44-20.138666 8.426666a10.666667 10.666667 0 1 0 8.746666 19.456c6.314667-2.837333 12.672-5.504 19.114667-8a10.645333 10.645333 0 1 0-7.722667-19.882666z m322.261334 8.938666a414.037333 414.037333 0 0 0-20.138667-8.512 10.666667 10.666667 0 1 0-7.765333 19.861334c6.442667 2.517333 12.8 5.205333 19.093333 8.064a10.666667 10.666667 0 0 0 8.810667-19.413334z m-381.717334 19.776c-6.336 3.712-12.586667 7.594667-18.709333 11.648a10.581333 10.581333 0 0 0-4.608 10.922667 10.602667 10.602667 0 0 0 10.410667 8.64 10.666667 10.666667 0 0 0 5.930666-1.749333c5.824-3.84 11.733333-7.530667 17.770667-11.050667a10.624 10.624 0 0 0 3.797333-14.592 10.581333 10.581333 0 0 0-10.666666-5.184 10.56 10.56 0 0 0-3.925334 1.365333z m439.658667 12.309334c-6.122667-4.053333-12.373333-7.957333-18.688-11.690667a10.666667 10.666667 0 1 0-10.837333 18.389333c6.016 3.541333 11.925333 7.232 17.706666 11.093334a10.56 10.56 0 0 0 10.026667 0.938666 10.666667 10.666667 0 0 0 1.792-18.730666zM247.978667 190.506667c-5.632 4.650667-11.157333 9.450667-16.576 14.378666a10.752 10.752 0 0 0-2.816 11.52 10.624 10.624 0 0 0 17.216 4.224c5.12-4.693333 10.368-9.216 15.722666-13.632a10.688 10.688 0 0 0-9.877333-18.432 10.624 10.624 0 0 0-3.669333 1.962667z m545.493333 15.210666c-5.376-4.949333-10.88-9.749333-16.512-14.421333a10.645333 10.645333 0 0 0-17.024 11.285333 10.730667 10.730667 0 0 0 3.413333 5.162667c5.354667 4.416 10.581333 8.96 15.701334 13.674667a10.432 10.432 0 0 0 5.568 2.688 10.688 10.688 0 0 0 10.24-16.832 10.517333 10.517333 0 0 0-1.365334-1.557334zM200.682667 236.096a419.2 419.2 0 0 0-14.122667 16.789333 10.645333 10.645333 0 0 0 7.466667 17.28 10.88 10.88 0 0 0 7.765333-2.496 10.624 10.624 0 0 0 1.450667-1.493333c4.330667-5.418667 8.789333-10.730667 13.397333-15.936a10.624 10.624 0 0 0-8.618667-17.706667 10.581333 10.581333 0 0 0-7.338666 3.562667z m637.568 17.749333a416.896 416.896 0 0 0-14.08-16.853333 10.581333 10.581333 0 0 0-11.456-3.029333 10.581333 10.581333 0 0 0-7.125334 11.52 10.688 10.688 0 0 0 2.56 5.632c4.608 5.205333 9.066667 10.538667 13.376 15.957333a10.581333 10.581333 0 0 0 11.285334 3.626667 10.581333 10.581333 0 0 0 7.701333-11.093334 10.496 10.496 0 0 0-2.261333-5.76z m-677.226667 34.773334c-3.968 6.208-7.744 12.522667-11.370667 18.901333a10.666667 10.666667 0 0 0 18.56 10.517333c3.456-6.08 7.04-12.053333 10.794667-17.92a10.56 10.56 0 0 0-0.256-11.861333 10.56 10.56 0 0 0-11.050667-4.309333 10.666667 10.666667 0 0 0-6.677333 4.693333z m713.962667 19.989333a414.933333 414.933333 0 0 0-11.306667-18.944 10.432 10.432 0 0 0-4.693333-4.053333 10.624 10.624 0 0 0-14.72 7.424 10.602667 10.602667 0 0 0 1.408 8.042666c3.733333 5.909333 7.296 11.882667 10.709333 17.962667a10.56 10.56 0 0 0 10.56 5.376 10.56 10.56 0 0 0 9.002667-7.701333 10.538667 10.538667 0 0 0-0.96-8.106667zM129.92 347.2c-2.858667 6.613333-5.546667 13.312-8.042667 20.074667a10.666667 10.666667 0 0 0 19.989334 7.424c2.389333-6.4 4.928-12.757333 7.637333-19.029334a10.581333 10.581333 0 0 0-2.133333-11.669333 10.56 10.56 0 0 0-11.584-2.496 10.666667 10.666667 0 0 0-5.866667 5.696z m772.629333 21.205333c-2.496-6.762667-5.141333-13.44-7.978666-20.053333a10.56 10.56 0 0 0-7.850667-6.293333 10.666667 10.666667 0 0 0-11.754667 14.677333c2.688 6.272 5.205333 12.629333 7.552 19.029333a10.56 10.56 0 0 0 9.6 6.976 10.538667 10.538667 0 0 0 9.045334-4.373333 10.666667 10.666667 0 0 0 1.386666-9.962667z m-793.6 40.277334c-1.834667 7.082667-3.456 14.208-4.885333 21.376a10.666667 10.666667 0 1 0 20.928 4.181333c1.365333-6.805333 2.901333-13.568 4.608-20.266667a10.581333 10.581333 0 0 0-3.946667-11.178666 10.581333 10.581333 0 0 0-11.818666-0.64 10.624 10.624 0 0 0-4.906667 6.528z m811.221334 22.570666c-1.408-7.168-3.008-14.293333-4.8-21.397333a10.773333 10.773333 0 0 0-8.810667-7.936 10.538667 10.538667 0 0 0-7.893333 2.005333 10.538667 10.538667 0 0 0-4.202667 6.997334 10.581333 10.581333 0 0 0 0.213333 4.16c1.706667 6.72 3.2 13.482667 4.565334 20.288a10.602667 10.602667 0 0 0 8.362666 8.405333 10.538667 10.538667 0 0 0 9.621334-2.901333 10.496 10.496 0 0 0 3.136-7.530667 10.666667 10.666667 0 0 0-0.213334-2.090667zM97.706667 473.962667c-0.661333 7.466667-1.152 14.933333-1.429334 22.464a10.624 10.624 0 0 0 10.282667 11.050666 10.581333 10.581333 0 0 0 10.090667-6.208 10.56 10.56 0 0 0 0.96-4.053333c0.256-7.125333 0.704-14.250667 1.344-21.333333a10.624 10.624 0 0 0-13.781334-11.136 10.538667 10.538667 0 0 0-6.272 5.226666 10.56 10.56 0 0 0-1.194666 3.989334z m830.058666 23.722666a419.84 419.84 0 0 0-1.365333-22.485333 10.666667 10.666667 0 0 0-21.248 1.856c0.618667 7.104 1.045333 14.208 1.28 21.333333 0.085333 2.602667 1.002667 4.842667 2.709333 6.762667A10.368 10.368 0 0 0 906.666667 512c0 7.189333-0.192 14.378667-0.576 21.546667a10.666667 10.666667 0 0 0 21.290666 1.130666c0.426667-7.530667 0.618667-15.104 0.618667-22.677333a10.602667 10.602667 0 0 0-2.709333-7.104 10.56 10.56 0 0 0 2.474666-7.210667z m-830.72 44.074667c0.533333 7.445333 1.258667 14.869333 2.176 22.250667a10.581333 10.581333 0 0 0 7.765334 8.96 10.56 10.56 0 0 0 11.242666-3.712 10.666667 10.666667 0 0 0 2.154667-7.893334 396.266667 396.266667 0 0 1-2.048-21.12 10.666667 10.666667 0 1 0-21.290667 1.493334z m821.482667 58.965333c1.557333-7.189333 2.922667-14.4 4.096-21.653333a10.56 10.56 0 0 0-1.877333-7.936 10.581333 10.581333 0 0 0-13.077334-3.477333 10.624 10.624 0 0 0-6.101333 8c-1.130667 6.890667-2.410667 13.717333-3.904 20.522666a10.581333 10.581333 0 0 0 4.352 11.029334 10.581333 10.581333 0 0 0 11.84 0.213333 10.816 10.816 0 0 0 4.650667-6.698667z m-811.52 6.72c1.664 7.082667 3.498667 14.122667 5.546667 21.12a10.645333 10.645333 0 0 0 19.584 2.133334 10.56 10.56 0 0 0 0.896-8.106667c-1.92-6.613333-3.690667-13.290667-5.269334-20.010667a10.56 10.56 0 0 0-8.661333-8.106666 10.581333 10.581333 0 0 0-11.712 6.805333 10.624 10.624 0 0 0-0.384 6.186667z m792.704 55.616c2.624-6.698667 5.056-13.482667 7.317333-20.309333a10.56 10.56 0 0 0-3.157333-11.434667 10.581333 10.581333 0 0 0-11.754667-1.450666 10.581333 10.581333 0 0 0-5.333333 6.186666c-2.133333 6.485333-4.48 12.906667-6.933333 19.264a10.666667 10.666667 0 1 0 19.861333 7.744z m-772.906667 6.293334c2.773333 6.826667 5.738667 13.546667 8.874667 20.181333a10.602667 10.602667 0 0 0 14.208 5.098667 10.666667 10.666667 0 0 0 5.973333-8.085334c0.128-0.682667 0.149333-1.386667 0.128-2.090666a10.666667 10.666667 0 0 0-1.024-4.032c-2.986667-6.314667-5.781333-12.693333-8.426666-19.136a10.581333 10.581333 0 0 0-9.813334-6.613334 10.496 10.496 0 0 0-7.573333 3.072 10.581333 10.581333 0 0 0-2.346667 11.605334z m744.106667 53.12c3.712-6.336 7.274667-12.8 10.666667-19.328a10.602667 10.602667 0 0 0-2.816-13.226667 10.730667 10.730667 0 0 0-13.525334 0.170667 10.517333 10.517333 0 0 0-2.602666 3.242666c-3.2 6.186667-6.592 12.309333-10.133334 18.346667a10.538667 10.538667 0 0 0-1.130666 8.085333 10.602667 10.602667 0 0 0 13.013333 7.637334 10.496 10.496 0 0 0 6.506667-4.906667z m-714.24 5.973333c3.84 6.250667 7.808 12.416 11.946667 18.474667a10.581333 10.581333 0 0 0 11.029333 4.416 10.709333 10.709333 0 0 0 6.592-16.469334 396.16 396.16 0 0 1-11.349333-17.536 10.581333 10.581333 0 0 0-10.773334-4.992 10.602667 10.602667 0 0 0-9.002666 10.112 10.624 10.624 0 0 0 1.557333 5.973334z m676.437333 48.042667c4.650667-5.653333 9.173333-11.413333 13.525334-17.28a10.816 10.816 0 0 0 1.962666-7.936 10.709333 10.709333 0 0 0-16.042666-7.573334 10.645333 10.645333 0 0 0-3.072 2.794667c-4.138667 5.589333-8.405333 11.050667-12.821334 16.426667a10.709333 10.709333 0 0 0 7.146667 17.386666 10.688 10.688 0 0 0 9.301333-3.84z m-637.781333 5.290666c4.736 5.546667 9.621333 10.986667 14.656 16.298667a10.56 10.56 0 0 0 11.562667 2.624 10.56 10.56 0 0 0 6.826666-9.664 10.496 10.496 0 0 0-2.901333-7.637333 400.064 400.064 0 0 1-13.909333-15.466667 10.538667 10.538667 0 0 0-7.274667-3.712 10.56 10.56 0 0 0-10.346667 5.781333 10.666667 10.666667 0 0 0 1.386667 11.776z m592.128 41.962667c5.482667-4.842667 10.816-9.813333 16.042667-14.933333a10.709333 10.709333 0 0 0-3.306667-17.429334 10.581333 10.581333 0 0 0-11.648 2.197334c-4.949333 4.864-10.026667 9.6-15.232 14.186666a10.624 10.624 0 0 0 4.352 18.304 10.56 10.56 0 0 0 9.792-2.325333z m-545.706667 4.522667c5.568 4.757333 11.242667 9.386667 17.066667 13.824a10.56 10.56 0 0 0 11.818667 0.789333 10.538667 10.538667 0 0 0 5.248-10.624 10.773333 10.773333 0 0 0-4.096-7.082667c-5.504-4.224-10.88-8.597333-16.170667-13.098666a10.730667 10.730667 0 0 0-13.525333-0.277334 10.752 10.752 0 0 0-4.053334 9.194667 10.56 10.56 0 0 0 3.712 7.274667z m493.098667 35.072c6.186667-3.946667 12.266667-8.042667 18.24-12.288a10.730667 10.730667 0 0 0 4.224-11.093334 10.624 10.624 0 0 0-12.8-8 10.56 10.56 0 0 0-3.797333 1.706667c-5.653333 4.053333-11.434667 7.936-17.301334 11.669333a10.56 10.56 0 0 0-4.949333 8.746667 10.496 10.496 0 0 0 4.544 8.981333 10.56 10.56 0 0 0 11.84 0.277334z m-439.808 3.669333c6.272 3.84 12.650667 7.509333 19.114667 11.029333a10.538667 10.538667 0 0 0 10.048 0.042667 10.56 10.56 0 0 0 5.632-8.32 10.538667 10.538667 0 0 0-2.325334-7.829333 10.538667 10.538667 0 0 0-3.2-2.666667c-6.122667-3.306667-12.16-6.805333-18.133333-10.453333a10.56 10.56 0 0 0-11.84 0.469333 10.602667 10.602667 0 0 0-2.346667 14.890667 10.624 10.624 0 0 0 3.050667 2.837333z m381.184 27.306667c6.826667-2.922667 13.525333-6.016 20.16-9.301334a10.666667 10.666667 0 1 0-9.472-19.114666c-6.293333 3.114667-12.650667 6.058667-19.114667 8.832a10.602667 10.602667 0 0 0-6.442666 9.941333 10.56 10.56 0 0 0 6.72 9.749333 10.773333 10.773333 0 0 0 8.149333-0.106666z m-322.133333 2.666666c6.656 2.730667 13.354667 5.290667 20.138666 7.68a10.56 10.56 0 0 0 9.941334-1.557333 10.538667 10.538667 0 0 0 4.245333-9.109333 10.581333 10.581333 0 0 0-7.125333-9.472c-6.421333-2.261333-12.8-4.693333-19.093334-7.274667a10.56 10.56 0 0 0-11.626666 2.346667 10.602667 10.602667 0 0 0 0.042666 15.082666 10.816 10.816 0 0 0 3.477334 2.304z m260.629333 18.24c7.04-1.792 14.016-3.754667 20.949333-5.909333a10.56 10.56 0 0 0 7.466667-9.216 10.538667 10.538667 0 0 0-3.925333-9.258667 10.56 10.56 0 0 0-9.877334-1.92c-6.570667 2.048-13.184 3.925333-19.84 5.632a10.773333 10.773333 0 0 0-7.466666 6.762667 10.538667 10.538667 0 0 0 1.536 9.941333 10.581333 10.581333 0 0 0 11.157333 3.968z m-198.762667 1.642667c7.125333 1.664 14.293333 3.178667 21.504 4.48a10.538667 10.538667 0 0 0 7.978667-1.728 10.517333 10.517333 0 0 0 4.586667-8.96 10.453333 10.453333 0 0 0-3.242667-7.466667 10.56 10.56 0 0 0-5.525333-2.837333c-6.826667-1.237333-13.653333-2.666667-20.394667-4.266667a10.581333 10.581333 0 0 0-11.093333 4.16 10.517333 10.517333 0 0 0-1.344 9.962667 10.581333 10.581333 0 0 0 7.530666 6.656z m133.461334 9.472c7.424-0.64 14.805333-1.514667 22.144-2.56a10.56 10.56 0 0 0 8.832-7.936 10.581333 10.581333 0 0 0-3.946667-11.178667 10.666667 10.666667 0 0 0-7.893333-2.005333c-6.997333 1.002667-13.994667 1.813333-21.034667 2.432a10.666667 10.666667 0 1 0 1.92 21.248z m-67.797334 0.576c7.509333 0.533333 15.018667 0.874667 22.570667 1.024a10.666667 10.666667 0 1 0 0.405333-21.333333c-7.168-0.128-14.314667-0.469333-21.44-0.981334a10.56 10.56 0 0 0-10.304 5.866667 10.581333 10.581333 0 0 0 2.986667 13.205333 10.602667 10.602667 0 0 0 5.76 2.218667zM512 832c176.725333 0 320-143.274667 320-320 0-176.725333-143.274667-320-320-320-176.725333 0-320 143.274667-320 320 0 176.725333 143.274667 320 320 320z m0-597.333333c153.173333 0 277.333333 124.16 277.333333 277.333333s-124.16 277.333333-277.333333 277.333333-277.333333-124.16-277.333333-277.333333 124.16-277.333333 277.333333-277.333333z" fill="#005BFF" p-id="4778"></path><path d="M506.538667 813.141333c-85.482667 0-154.794667-134.272-154.794667-299.904S421.056 213.333333 506.538667 213.333333C592.042667 213.333333 661.333333 347.605333 661.333333 513.237333s-69.290667 299.904-154.794666 299.904z" fill="#E6E6E6" p-id="4779"></path><path d="M439.530667 797.824c21.12 17.322667 43.477333 25.984 67.008 25.984 23.552 0 45.866667-8.661333 67.008-25.984 19.669333-16.106667 36.970667-38.656 51.925333-67.626667 14.72-28.501333 26.090667-61.162667 34.133333-97.941333 8.256-37.909333 12.394667-77.568 12.394667-119.018667 0-41.450667-4.138667-81.109333-12.416-119.018666-8.021333-36.778667-19.413333-69.44-34.112-97.92-14.954667-29.013333-32.256-51.541333-51.925333-67.648-21.12-17.322667-43.477333-25.984-66.986667-25.984-23.552 0-45.888 8.661333-67.029333 25.984-19.648 16.106667-36.970667 38.656-51.925334 67.626666-14.72 28.501333-26.069333 61.162667-34.112 97.941334a556.672 556.672 0 0 0-12.416 119.04c0 41.429333 4.138667 81.088 12.416 118.997333 8.042667 36.778667 19.413333 69.44 34.133334 97.941333 14.933333 28.970667 32.256 51.52 51.904 67.626667z m120.490666-16.490667c-17.194667 14.08-35.029333 21.141333-53.482666 21.141334-18.453333 0-36.266667-7.04-53.482667-21.141334-17.386667-14.250667-32.874667-34.56-46.506667-60.928-13.824-26.837333-24.576-57.728-32.213333-92.693333a535.36 535.36 0 0 1-11.925333-114.474667c0-39.893333 3.989333-78.08 11.946666-114.453333 7.616-34.986667 18.346667-65.877333 32.213334-92.714667 13.610667-26.368 29.098667-46.677333 46.485333-60.906666 17.194667-14.122667 35.029333-21.162667 53.482667-21.162667 18.453333 0 36.288 7.04 53.504 21.162667 17.365333 14.229333 32.853333 34.538667 46.464 60.906666 13.866667 26.837333 24.618667 57.749333 32.234666 92.714667 7.957333 36.394667 11.925333 74.538667 11.925334 114.453333 0 39.893333-3.968 78.08-11.925334 114.474667-7.616 34.965333-18.368 65.856-32.213333 92.693333-13.610667 26.368-29.12 46.677333-46.506667 60.928z" fill="#005BFF" p-id="4780"></path><path d="M813.141333 517.461333c0 85.482667-134.272 154.794667-299.904 154.794667S213.333333 602.944 213.333333 517.461333C213.333333 431.957333 347.605333 362.666667 513.237333 362.666667s299.904 69.290667 299.904 154.794666z" fill="#FFFFFF" p-id="4781"></path><path d="M797.824 584.469333c17.322667-21.12 25.984-43.477333 25.984-67.008 0-23.552-8.661333-45.866667-25.984-67.008-16.106667-19.669333-38.656-36.970667-67.626667-51.925333-28.501333-14.72-61.162667-26.090667-97.941333-34.133333a556.650667 556.650667 0 0 0-119.018667-12.394667c-41.450667 0-81.109333 4.138667-119.018666 12.416-36.778667 8.021333-69.44 19.413333-97.92 34.112-29.013333 14.954667-51.541333 32.256-67.648 51.925333-17.322667 21.12-25.984 43.477333-25.984 66.986667 0 23.552 8.661333 45.888 25.984 67.029333 16.106667 19.648 38.656 36.970667 67.626666 51.925334 28.501333 14.72 61.162667 26.069333 97.941334 34.112 37.909333 8.277333 77.568 12.416 119.04 12.416 41.429333 0 81.088-4.138667 118.997333-12.416 36.778667-8.042667 69.44-19.413333 97.941333-34.133334 28.970667-14.933333 51.52-32.256 67.626667-51.904z m-16.490667-120.490666c14.08 17.194667 21.141333 35.029333 21.141334 53.482666 0 18.453333-7.04 36.266667-21.141334 53.482667-14.250667 17.386667-34.56 32.874667-60.928 46.506667-26.837333 13.824-57.728 24.576-92.693333 32.213333a535.36 535.36 0 0 1-114.474667 11.925333c-39.893333 0-78.08-3.989333-114.453333-11.946666-34.986667-7.616-65.877333-18.346667-92.714667-32.213334-26.368-13.610667-46.677333-29.098667-60.906666-46.485333-14.122667-17.194667-21.162667-35.029333-21.162667-53.482667 0-18.453333 7.04-36.288 21.162667-53.504 14.229333-17.365333 34.538667-32.853333 60.906666-46.464 26.837333-13.866667 57.749333-24.618667 92.714667-32.234666a535.36 535.36 0 0 1 114.453333-11.925334c39.893333 0 78.08 3.968 114.474667 11.925334 34.965333 7.616 65.856 18.368 92.693333 32.213333 26.368 13.610667 46.677333 29.12 60.928 46.506667z" fill="#005BFF" p-id="4782"></path><path d="M341.333333 449.770667h22.058667v150.186666H341.333333v-150.186666z m76.394667 91.52h33.557333l1.216 0.042666h1.194667a56.469333 56.469333 0 0 0 4.8-0.298666 55.445333 55.445333 0 0 0 4.757333-0.853334 35.968 35.968 0 0 0 4.586667-1.408 42.218667 42.218667 0 0 0 18.944-13.866666 42.794667 42.794667 0 0 0 3.584-5.077334 48.618667 48.618667 0 0 0 4.992-11.413333 47.189333 47.189333 0 0 0 1.621333-17.813333 47.402667 47.402667 0 0 0-3.178666-13.418667 49.365333 49.365333 0 0 0-2.048-4.629333 36.352 36.352 0 0 0-10.176-12.352 44.074667 44.074667 0 0 0-16.213334-8.789334 76.48 76.48 0 0 0-16.533333-1.642666h-53.162667v150.186666h22.058667v-58.666666z m0-70.4h31.914667a26.709333 26.709333 0 0 1 15.722666 4.224 18.176 18.176 0 0 1 6.4 6.272c0.234667 0.362667 0.448 0.725333 0.64 1.109333a29.12 29.12 0 0 1 2.346667 12.693333 25.557333 25.557333 0 0 1-2.304 10.922667 25.344 25.344 0 0 1-4.437333 6.677333 23.04 23.04 0 0 1-8.64 5.525334 22.4 22.4 0 0 1-6.314667 1.344 23.637333 23.637333 0 0 1-2.581333 0.042666H417.706667v-48.810666z m141.653333 129.066666l37.888-107.008h-22.058666l-24.277334 74.986667h-0.362666l-24.298667-74.986667h-22.058667l38.016 107.029334h17.152z m88.704 1.194667a41.429333 41.429333 0 0 0 25.877334-9.109333 41.898667 41.898667 0 0 0 4.522666-4.245334 41.386667 41.386667 0 0 0 6.229334-9.066666 42.602667 42.602667 0 0 0 4.693333-21.354667v-13.141333a44.48 44.48 0 0 0-0.64-12.736 41.173333 41.173333 0 0 0-2.453333-8.128 43.989333 43.989333 0 0 0-6.528-10.944 33.493333 33.493333 0 0 0-17.664-9.429334 31.424 31.424 0 0 0-6.762667-0.554666 86.122667 86.122667 0 0 0-27.797333 4.693333v-14.186667c0-15.146667 7.146667-22.762667 20.416-23.466666a18.496 18.496 0 0 1 8.256 1.301333 17.066667 17.066667 0 0 1 3.413333 1.770667 25.536 25.536 0 0 1 2.410667 1.877333 21.653333 21.653333 0 0 1 2.56 2.858667 18.368 18.368 0 0 1 2.474666 4.736h21.482667a41.173333 41.173333 0 0 0-3.072-10.688 40.469333 40.469333 0 0 0-8.469333-12.16 40.362667 40.362667 0 0 0-4.181334-3.52 44.544 44.544 0 0 0-9.301333-4.906667 41.173333 41.173333 0 0 0-11.946667-2.645333 43.84 43.84 0 0 0-17.045333 2.24 39.850667 39.850667 0 0 0-14.869333 9.386666 40.576 40.576 0 0 0-9.088 12.565334 39.317333 39.317333 0 0 0-2.858667 8.405333 42.453333 42.453333 0 0 0-0.96 11.072v66.176a40.042667 40.042667 0 0 0 0.853333 10.389333 43.882667 43.882667 0 0 0 2.517334 7.936 43.477333 43.477333 0 0 0 5.333333 8.96 43.584 43.584 0 0 0 7.36 7.338667 41.514667 41.514667 0 0 0 25.237333 8.576z m-20.053333-56.682667c0-15.146667 7.146667-22.762667 20.522667-23.466666 13.376-0.704 20.074667 7.850667 20.544 23.466666v11.733334c0 15.253333-7.274667 23.466667-20.544 23.466666-13.248 0-20.522667-7.616-20.522667-22.997333v-12.202667z" fill="#06F3FF" p-id="4783"></path></svg>