<?xml version="1.0" standalone="no"?><!DOCTYPE svg PUBLIC "-//W3C//DTD SVG 1.1//EN" "http://www.w3.org/Graphics/SVG/1.1/DTD/svg11.dtd"><svg t="1768909751492" class="icon" viewBox="0 0 1024 1024" version="1.1" xmlns="http://www.w3.org/2000/svg" p-id="3388" xmlns:xlink="http://www.w3.org/1999/xlink" width="200" height="200"><path d="M951.146146 100.951415a49.95122 49.95122 0 0 1 49.95122 49.951219v699.317073a49.95122 49.95122 0 0 1-49.95122 49.95122h-899.121951a49.95122 49.95122 0 0 1-49.951219-49.95122v-699.317073a49.95122 49.95122 0 0 1 49.951219-49.951219h899.121951z m-824.195122 224.780487h-49.951219v349.658537h49.951219v-349.658537z m162.341464 0h-87.414634v349.658537h49.951219v-124.878049h37.463415c84.967024 0 112.390244-33.717073 112.390244-112.390244 0-73.728-20.679805-112.390244-112.390244-112.390244z m199.804878 74.92683h-62.439025l99.902439 274.731707h74.92683l99.902439-274.731707h-62.439025l-74.926829 212.292683-74.926829-212.292683z m405.429073-76.924878c-137.865366 0-193.13639 80.421463-193.13639 214.290731 0 105.896585 44.956098 137.365854 112.390244 137.365854 82.919024 0 112.390244-42.458537 112.390244-112.390244 0-73.927805-32.468293-112.390244-99.902439-112.390244-27.972683 0-46.129951 9.990244-61.61483 23.477073h-1.498536c6.493659-57.943415 50.450732-95.906341 130.872195-96.405853l0.499512-53.947317z m-80.746146 176.827317c35.964878 0 62.439024 18.981463 62.439024 62.439024 0 44.456585-21.978537 62.439024-62.439024 62.439025-39.960976 0-62.439024-14.985366-62.439025-62.439025 0-34.466341 14.985366-62.439024 62.439025-62.439024z m-524.487805-124.878049c49.901268 0 62.439024 19.730732 62.439024 62.439024 0 45.405659-12.088195 62.439024-62.439024 62.439025h-37.463415v-124.878049h37.463415z" fill="#0052CC" p-id="3389"></path></svg>