<?xml version="1.0" standalone="no"?><!DOCTYPE svg PUBLIC "-//W3C//DTD SVG 1.1//EN" "http://www.w3.org/Graphics/SVG/1.1/DTD/svg11.dtd"><svg t="1768627910583" class="icon" viewBox="0 0 1024 1024" version="1.1" xmlns="http://www.w3.org/2000/svg" p-id="73830" xmlns:xlink="http://www.w3.org/1999/xlink" width="200" height="200"><path d="M711.100192 734.095969c-96.99501-0.098273-207.453359-32.036852-311.130902-90.115931-103.677543-57.980806-188.683301-135.51785-239.391939-218.165067-3.83263-6.191171-7.370441-12.382342-10.711708-18.47524C137.286756 444.290211 130.702495 483.50096 130.702495 523.792706c0 96.110557 37.441843 186.423033 105.348177 254.329367 67.906334 68.004607 158.21881 105.446449 254.329366 105.446449 96.110557 0 186.423033-37.441843 254.329367-105.348177 16.018426-16.018426 30.267946-33.314395 42.846833-51.59309-23.48714 5.0119-48.939731 7.566987-76.161228 7.566987-0.098273-0.098273-0.196545-0.098273-0.294818-0.098273z" fill="#00B0FF" p-id="73831"></path><path d="M925.727447 0H98.272553C44.026104 0 0 44.026104 0 98.272553v827.454894c0 54.246449 44.026104 98.272553 98.272553 98.272553h827.454894c54.246449 0 98.272553-44.026104 98.272553-98.272553V98.272553c0-54.246449-44.026104-98.272553-98.272553-98.272553z m-0.589635 634.938964c-15.035701 26.828407-37.048752 48.644914-65.646065 64.958157-20.047601 41.864107-46.876008 79.895585-79.993858 113.013436-37.540115 37.540115-81.271401 67.021881-129.916315 87.659117-50.41382 21.325144-103.972361 32.135125-159.201536 32.135124s-108.689443-10.809981-159.201535-32.135124c-48.644914-20.637236-92.3762-50.119002-129.916315-87.659117-37.540115-37.540115-67.021881-81.271401-87.659117-129.916315-21.325144-50.41382-32.135125-103.972361-32.135125-159.201536s10.809981-108.689443 32.135125-159.201535c2.948177-6.879079 5.994626-13.659885 9.23762-20.342419-4.029175-13.365067-6.977351-26.435317-8.746257-39.407293-5.798081-42.158925 0.589635-80.288676 19.064875-113.308254 26.828407-47.858733 76.456046-79.895585 143.674472-92.867562 62.009981-11.890979 136.107486-6.977351 214.135893 14.446065l-0.491363 1.768906c55.130902 0 108.591171 10.809981 158.906718 32.135125 48.644914 20.637236 92.3762 50.119002 129.916315 87.659117 32.72476 32.72476 59.356622 70.166603 79.207677 111.441075 85.300576 103.579271 110.163532 210.991171 66.628791 288.823033z" fill="#00B0FF" p-id="73832"></path><path d="M201.262188 234.674856c37.540115-37.540115 81.271401-67.021881 129.916315-87.659117 4.61881-1.965451 9.23762-3.83263 13.85643-5.601536-20.735509 0.098273-40.488292 1.965451-58.963532 5.503263-66.333973 12.775432-96.503647 44.320921-110.065259 68.594242-10.711708 19.064875-15.625336 41.077927-14.839155 65.44952 12.185797-16.214971 25.550864-31.742035 40.095201-46.286372zM685.844146 409.99309c-9.532438 0-16.902879 2.849904-22.013052 8.647985-5.306718 5.503263-7.960077 13.365067-7.960077 23.585413 0 9.827255 2.849904 17.492514 8.45144 23.094049 5.601536 5.601536 12.873704 8.45144 21.619961 8.45144 8.942802 0 16.214971-3.046449 21.816507-9.041075 5.601536-6.092898 8.45144-13.85643 8.45144-23.388867 0-9.335893-2.653359-16.902879-7.960077-22.70096-5.699808-5.798081-13.168522-8.647985-22.406142-8.647985zM470.528983 364.984261c-5.0119-4.029175-13.168522-6.092898-24.469866-6.092898h-36.753935V410.779271h36.753935c11.104798 0 19.359693-2.063724 24.666411-6.092899 5.208445-4.22572 7.763532-10.908253 7.763532-20.145873 0-8.942802-2.653359-15.428791-7.960077-19.556238z" fill="#00B0FF" p-id="73833"></path><path d="M817.136276 372.944338c-0.884453-0.982726-1.670633-1.965451-2.555086-3.046449l0.78618-0.687908c-17.394242-36.55739-41.1762-70.363148-70.657965-99.844914-67.906334-67.906334-158.21881-105.348177-254.329367-105.348176-96.110557 0-186.423033 37.441843-254.329366 105.348176-23.781958 23.781958-43.731286 50.217274-59.749712 78.814588 6.584261 16.902879 15.330518 34.297121 26.140499 51.98618 46.482917 75.669866 125.10096 147.015739 221.506334 200.96737 96.405374 53.951631 198.412284 83.728215 287.152399 83.826488h0.294818c41.56929 0 77.733589-6.584261 107.313627-19.556238 1.080998-0.491363 2.063724-0.884453 3.046449-1.375816C840.328599 620.198081 850.057582 572.732438 850.057582 523.792706c0.098273-52.968906-11.301344-104.168906-32.921306-150.848368zM353.78119 491.755854h-25.256046V337.369674H353.78119v154.38618z m93.850288-59.258349h-38.228023v59.258349h-25.256046V337.369674H448.122841c37.34357 0 56.015355 15.821881 56.015355 47.36737-0.098273 31.840307-18.86833 47.760461-56.506718 47.760461z m129.916315 59.258349h-24.666411l-41.274472-111.735892h26.828407l26.828407 81.074856 26.828407-81.074856h26.828406l-41.372744 111.735892zM725.447985 479.570058c-10.515163 10.122073-23.388868 15.133973-38.719386 15.133973-19.064875 0-33.51094-6.879079-43.436468-20.538964-9.827255-13.266795-14.740883-31.742035-14.740883-55.327447 0-25.354319 5.306718-45.79501 15.821881-61.2238 10.416891-15.527063 24.568138-23.388868 42.552015-23.388868 30.267946 0 47.36737 14.052975 51.2 42.158925H713.458733c-3.046449-14.24952-11.989251-21.423417-26.828407-21.423416-10.416891 0-18.573512 5.0119-24.66641 15.133973-5.896353 9.23762-8.84453 21.128599-8.84453 35.672936v1.965451h1.080998c4.22572-6.387716 9.63071-11.006526 16.214971-14.052975 5.798081-2.849904 12.677159-4.323992 20.735509-4.323992 15.133973 0 27.221497 4.815355 36.360844 14.446065 9.041075 9.63071 13.659885 22.111324 13.659885 37.441843 0 15.527063-5.208445 28.302495-15.723608 38.326296z" fill="#00B0FF" p-id="73834"></path></svg>