<?xml version="1.0" standalone="no"?><!DOCTYPE svg PUBLIC "-//W3C//DTD SVG 1.1//EN" "http://www.w3.org/Graphics/SVG/1.1/DTD/svg11.dtd"><svg t="1768909701934" class="icon" viewBox="0 0 1024 1024" version="1.1" xmlns="http://www.w3.org/2000/svg" p-id="1674" xmlns:xlink="http://www.w3.org/1999/xlink" width="200" height="200"><path d="M512 0a512 512 0 1 1 0 1024A512 512 0 0 1 512 0zM219.420444 365.738667H146.261333v365.681777h73.159111V365.795556z m150.584889 0H256v365.681777h73.728v-145.351111h46.08L381.155556 585.955556c29.923556-1.934222 53.191111-14.449778 69.575111-37.603556 16.384-22.698667 24.689778-37.774222 24.689777-65.820444 0-20.48-3.299556-38.570667-9.955555-53.930667a91.704889 91.704889 0 0 0-24.917333-36.807111l-4.380445-3.868445a88.860444 88.860444 0 0 0-30.833778-18.033777 151.381333 151.381333 0 0 0-35.271111-4.096z m202.865778 73.102222H498.858667l85.560889 292.579555h48.184888l85.674667-292.579555h-71.907555l-37.831112 146.318222-35.669333-146.318222z m304.867556-73.102222h-73.159111l-80.952889 182.613333-5.006223 12.743111-4.664888 13.596445-2.446223 8.305777a271.246222 271.246222 0 0 0-6.997333 38.229334c-0.682667 6.883556-0.455111 13.880889 0.682667 20.764444 2.616889 17.749333 9.386667 34.702222 19.797333 49.379556 12.629333 17.92 31.175111 30.776889 52.337778 36.352 13.198222 3.470222 26.851556 4.551111 40.391111 3.128889a104.220444 104.220444 0 0 0 64.568889-27.420445c7.395556-6.940444 13.368889-14.449778 18.033778-22.300444 7.111111-12.117333 12.231111-25.258667 15.189333-39.025778l1.479111-8.760889 0.455111-8.931556 0.113778-22.357333-0.512-7.452444-0.796445-6.144a112.867556 112.867556 0 0 0-14.620444-38.001778 83.057778 83.057778 0 0 0-38.741333-33.336889 52.394667 52.394667 0 0 0-13.084445-2.787556l-14.677333-1.365333L815.786667 512l61.952-146.261333z" fill="#337DFF" p-id="1675"></path><path d="M799.061333 572.984889a33.792 33.792 0 0 0-9.784889 5.347555 39.082667 39.082667 0 0 0-7.623111 7.964445c-2.161778 3.072-4.039111 6.257778-5.688889 9.671111l-1.877333 4.380444-1.649778 5.575112-0.512 3.128888 0.227556 12.458667c0.170667 4.152889 0.568889 8.305778 1.422222 12.401778a46.819556 46.819556 0 0 0 3.470222 11.264c1.479111 3.185778 3.413333 5.859556 6.144 8.362667a32.995556 32.995556 0 0 0 10.922667 6.257777 52.906667 52.906667 0 0 0 18.147556 2.673778 34.986667 34.986667 0 0 0 24.462222-7.68 31.857778 31.857778 0 0 0 6.826666-7.68 49.208889 49.208889 0 0 0 6.599112-16.611555l0.568888-4.664889-0.625777-18.602667a45.340444 45.340444 0 0 0-4.266667-16.497778 31.288889 31.288889 0 0 0-11.093333-12.515555 44.771556 44.771556 0 0 0-19.911111-6.087111l-3.982223-0.398223a28.16 28.16 0 0 0-11.776 1.251556zM373.76 438.840889h-44.600889V512h42.666667c10.638222-0.227556 18.204444-4.096 22.983111-11.491556a44.942222 44.942222 0 0 0 7.452444-25.031111c0-8.078222-1.024-14.791111-2.730666-19.456a25.144889 25.144889 0 0 0-8.419556-10.581333 29.468444 29.468444 0 0 0-17.351111-6.599111z" fill="#96BCFF" p-id="1676"></path></svg>