<?xml version="1.0" standalone="no"?><!DOCTYPE svg PUBLIC "-//W3C//DTD SVG 1.1//EN" "http://www.w3.org/Graphics/SVG/1.1/DTD/svg11.dtd"><svg t="1768627935025" class="icon" viewBox="0 0 1416 1024" version="1.1" xmlns="http://www.w3.org/2000/svg" p-id="74921" xmlns:xlink="http://www.w3.org/1999/xlink" width="276.5625" height="200"><path d="M999.770428 665.141493l40.241672 282.608716h0.458507l37.928756-282.608716h92.975125l-71.695284 356.616915h-121.188617l-72.617393-356.616915h93.892139z m393.093731-7.580657l19.231841 24.861293v84.45198l-87.727761 6.09815v-35.656597h-33.776717v67.089831l14.071085-14.544876h88.201552l19.231841 24.861293v180.152677l-19.231841 24.397692h-167.956378l-22.517811-24.397692v-312.91606l22.517811-24.397691h167.956378zM354.400796 0v169.051701H275.058627v680.80207h79.342169V1018.905473H0v-169.051702l88.598925-0.748895V168.47602L0 169.051701V0h354.400796z m517.247363 0c245.87208 0 368.757174 107.428299 368.757174 322.330746 0 104.371582-37.123821 188.008438-111.325612 250.915662-74.201791 62.907224-167.013891 93.077015-278.466865 90.458428h-108.452299V1018.905473h-210.556816V0h340.049513z m453.188776 869.615443h-34.245413v69.433313h34.245413v-69.438408zM842.502368 177.202945h-89.398766v310.103881h87.58002c118.814567 0 178.221851-52.28004 178.221851-156.911443 0-102.114706-58.790846-153.192438-176.403105-153.192438z" fill="#13227a" p-id="74922"></path></svg>