<?xml version="1.0" standalone="no"?><!DOCTYPE svg PUBLIC "-//W3C//DTD SVG 1.1//EN" "http://www.w3.org/Graphics/SVG/1.1/DTD/svg11.dtd"><svg t="1768625765594" class="icon" viewBox="0 0 1024 1024" version="1.1" xmlns="http://www.w3.org/2000/svg" p-id="29105" xmlns:xlink="http://www.w3.org/1999/xlink" width="200" height="200"><path d="M796.672 896c-35.328-5.5296-70.4512-12.5952-105.6768-19.6608-5.4272-6.144-13.1072-3.072-19.5584-4.5056-27.136-6.0416-54.5792-10.24-81.92-15.2576-2.1504 0-4.608-1.024-4.096-3.584a2.3552 2.3552 0 0 1 3.6864-1.6384c-17.92 5.5296-35.4304-3.072-53.6576-5.9392-9.1136-4.1984-19.5584-1.2288-28.8768-4.9152-2.7648-1.1264-6.4512-1.4336-0.8192-4.096a10.24 10.24 0 0 1 8.704-2.8672c-3.8912-0.8192-6.7584 1.536-10.24 3.072a280.8832 280.8832 0 0 0-35.9424-3.3792c-10.9568 0-13.1072-4.3008-10.24-17.5104a10.24 10.24 0 0 1 1.4336-2.9696 16.5888 16.5888 0 0 0 0.9216-6.2464V556.544c0-1.024-0.512-2.1504-0.8192-3.2768a10.24 10.24 0 0 1 1.4336-8.0896 23.2448 23.2448 0 0 1 16.1792-1.4336 43.6224 43.6224 0 0 0 7.2704 0H819.2a42.8032 42.8032 0 0 0 7.2704 0c8.6016-1.3312 17.3056 0 25.9072-0.512 6.0416 0 8.3968 2.4576 6.656 8.3968a9.3184 9.3184 0 0 1-6.656 0c-12.0832 0-24.064-2.048-36.1472-2.048H489.8816c-7.2704 0-14.5408-1.8432-19.5584-1.1264 3.2768-1.3312 8.9088 1.1264 14.4384 1.1264h341.9136a56.4224 56.4224 0 0 0 20.48 1.3312 52.1216 52.1216 0 0 1 10.24 1.8432c2.8672 4.9152 1.024 10.24 1.536 15.4624v309.76a104.6528 104.6528 0 0 0 0 12.6976c0 4.8128 3.1744 10.24-1.9456 14.2336a16.9984 16.9984 0 0 0-15.7696-2.1504c-14.7456-1.6384-29.3888-5.8368-44.544-6.7584zM477.5936 217.6c24.8832-5.2224 49.664-10.752 74.5472-15.872l151.4496-30.72c2.3552 0 4.8128-0.512 7.168-0.7168 17.8176-0.9216 34.6112-6.9632 52.224-9.3184s36.0448-8.192 54.6816-10.24A193.8432 193.8432 0 0 0 849.92 143.36c2.7648-0.9216 8.9088-4.4032 9.0112 3.6864v303.616c0 14.5408-0.512 29.0816 0 43.6224a3.1744 3.1744 0 0 1 0 3.2768 77.5168 77.5168 0 0 1-30.72 1.6384 170.3936 170.3936 0 0 0-43.3152 0l-3.1744 0.7168h-122.88c-8.8064 0-17.7152-1.1264-25.4976-1.3312 5.5296 1.9456 13.1072-2.8672 19.3536 2.6624-5.2224 3.6864-11.1616 1.3312-16.6912 1.9456a66.1504 66.1504 0 0 0-13.5168 0.8192c-31.232 0.6144-62.464 0.7168-93.5936 1.2288-20.48 0-40.0384 0-60.0064 0.7168a32.9728 32.9728 0 0 1-16.5888-3.7888c-2.6624-4.3008 1.2288-5.7344 3.4816-7.7824a8.6016 8.6016 0 0 0 3.584-3.072 21.7088 21.7088 0 0 0 0.6144-7.2704V258.56a26.2144 26.2144 0 0 0 0-6.3488 5.0176 5.0176 0 0 0-3.2768-2.6624 15.6672 15.6672 0 0 1-4.1984-1.4336A4.3008 4.3008 0 0 1 450.56 245.76c-1.4336-20.48-1.4336-20.48 17.7152-25.1904 3.2768-0.7168 6.9632 0.1024 9.3184-2.9696zM410.3168 509.8496c-2.3552 2.9696-5.632 1.536-8.4992 1.536H164.7616c-7.7824 0-9.6256-2.3552-9.5232-10.24V292.5568c0-10.24 2.6624-13.824 12.9024-15.872 76.0832-15.1552 152.064-30.72 228.1472-46.6944a32.4608 32.4608 0 0 1 4.5056 0c12.1856-1.024 12.1856-1.024 12.1856 11.0592V471.04a171.1104 171.1104 0 0 0 0 28.0576 15.4624 15.4624 0 0 1-2.6624 10.752zM366.08 812.1344c-23.4496-4.4032-47.0016-8.6016-70.4512-13.2096-42.496-8.192-84.8896-16.7936-127.2832-25.088-13.0048-2.56-13.1072-2.3552-12.0832-16.384 2.2528-2.6624 1.1264-5.8368 1.1264-8.8064v-82.8416c0-37.5808 1.7408-75.264 0.9216-112.64 0-7.2704 1.7408-10.24 9.6256-10.24h234.2912c7.9872 0 9.728 2.9696 10.24 10.24 1.8432 85.6064 0 171.2128 0.8192 256.7168 0 10.24-0.8192 10.24-10.24 8.704-12.5952-2.048-24.1664-5.5296-36.9664-6.4512z" fill="#11A5E9" p-id="29106"></path><path d="M859.0336 496.64v-1.8432a17.6128 17.6128 0 0 1-0.8192-8.9088V153.6a17.5104 17.5104 0 0 1 0.8192-8.9088c-6.3488-4.5056-12.3904 0-17.92 1.3312a73.4208 73.4208 0 0 1-12.1856 2.4576c-1.024 0-10.24-5.0176-4.4032 3.9936 0.8192 1.3312-2.8672 1.3312-4.4032 1.1264-21.2992-3.2768-40.2432 6.3488-60.3136 10.24a263.4752 263.4752 0 0 0-29.2864 4.608c-6.4512 1.9456-12.8 5.4272-19.7632 1.6384 28.4672-6.0416 56.832-12.1856 85.1968-18.0224 18.432-3.8912 36.9664-7.168 55.296-11.264 7.68-1.8432 10.24 0 10.24 7.8848v344.1664c0 8.704-2.6624 10.24-10.24 10.24-79.36 0-158.72 0-237.9776 0.8192q-76.5952 0-153.6 1.4336c-7.8848 0-10.752-1.2288-10.752-10.24v-263.168c0-7.4752 1.4336-11.0592 9.5232-11.776s12.9024-3.1744 19.6608-3.3792c-2.4576 7.0656-9.3184 5.2224-13.6192 5.3248-10.24 0-13.1072 4.096-11.8784 13.312a95.744 95.744 0 0 1 0 10.8544 14.0288 14.0288 0 0 1 2.4576 10.24v233.5744a25.9072 25.9072 0 0 1-2.4576 7.68 52.0192 52.0192 0 0 0 25.6 5.5296C526.4384 501.76 575.0784 501.76 623.7184 501.76a17.6128 17.6128 0 0 1 8.9088-0.8192h81.92c13.0048 0 26.112 0 39.0144-1.3312a64.9216 64.9216 0 0 1 11.776-0.6144 262.3488 262.3488 0 0 0-26.9312 1.8432h-76.6976a16.1792 16.1792 0 0 1-8.8064-0.9216c-8.8064-4.5056-18.432 0-27.3408-3.584h158.72l2.9696 0.8192c22.528 0 45.056 1.3312 67.584 0.8192a8.0896 8.0896 0 0 0 4.1984-1.3312z" fill="#15A3E3" p-id="29107"></path><path d="M506.88 835.6864c0 1.2288-4.608 2.56 0 3.6864a87.3472 87.3472 0 0 0 21.1968 1.8432c3.072 0 6.9632-1.4336 7.7824 3.584a14.1312 14.1312 0 0 1-10.24 0c-23.552-2.6624-46.592-8.192-69.8368-12.3904-3.3792 0-4.8128-2.048-4.608-5.4272v-3.584V551.936c0-8.704 2.7648-10.24 10.24-10.24H849.92c8.0896 0 10.24 2.2528 10.24 10.24v346.112c0 7.7824-1.2288 10.8544-10.24 8.9088-17.92-4.1984-36.1472-7.4752-54.272-11.0592 6.5536-4.5056 12.0832 1.4336 18.2272 1.7408 9.3184 0.6144 18.5344 2.3552 27.7504 3.4816a29.3888 29.3888 0 0 1 14.5408 1.8432c3.9936-3.072 0.8192-7.3728 1.8432-10.9568a21.4016 21.4016 0 0 1-0.8192-10.24v-327.68a4.7104 4.7104 0 0 1 0.8192-3.072c0-5.632-2.4576-7.4752-7.68-7.3728h-23.3472a17.6128 17.6128 0 0 1-8.9088 0.8192H484.864a18.0224 18.0224 0 0 1-9.0112-0.8192 28.16 28.16 0 0 0-14.5408 1.7408l-2.3552 2.048c-3.6864 3.4816-2.3552 7.9872-2.3552 12.0832v241.8688a97.1776 97.1776 0 0 1-0.7168 15.4624v0.7168c0 0.2048 0 0 0 0a6.8608 6.8608 0 0 1 1.1264-1.8432 2.048 2.048 0 0 1 2.2528 0c0 16.0768 0 15.4624 17.1008 14.848a81.92 81.92 0 0 1 30.72 5.2224z" fill="#15A5E3" p-id="29108"></path><path d="M366.08 812.1344a108.1344 108.1344 0 0 1 37.4784 5.632c6.7584 1.3312 8.0896-1.4336 8.2944-6.7584v-7.2704V589.824c0-13.4144-2.6624-26.5216-1.8432-39.936 0-4.3008-1.7408-6.0416-5.9392-5.8368a34.6112 34.6112 0 0 1-4.608 0H170.5984c-8.0896 0-10.24 1.7408-10.8544 10.24-0.8192 64.8192-2.2528 129.7408-1.6384 194.56 0 2.9696 1.024 6.2464-2.048 8.4992v-62.8736-143.36c0-7.3728 1.8432-10.24 9.6256-10.24h237.1584c8.2944 0 10.24 2.7648 10.24 10.24v261.4272c0 6.4512-1.536 9.1136-8.2944 7.0656-12.4928-2.7648-25.9072-2.8672-38.7072-7.4752z" fill="#21A8E3" p-id="29109"></path><path d="M410.3168 509.8496a291.1232 291.1232 0 0 0 1.2288-40.96c0.8192-74.752 0-149.504 0.512-224.3584 0-8.704-0.512-14.9504-11.3664-13.824 12.5952-4.4032 12.5952-4.4032 12.5952 8.192v260.9152c-0.1024 3.1744 2.56 7.8848-2.9696 10.0352z" fill="#20A8E3" p-id="29110"></path><path d="M526.2336 845.0048h10.24c18.7392 1.536 36.5568 10.24 56.2176 6.3488l-5.2224 1.7408c0 1.6384 0.8192 2.2528 1.8432 2.4576 19.8656 3.6864 39.8336 7.0656 59.6992 10.9568 4.096 0.8192 7.8848-2.048 11.4688 0A39.5264 39.5264 0 0 0 686.08 870.4c3.072-0.6144 3.8912 3.1744 4.7104 5.7344-34.816-6.4512-69.632-12.6976-104.448-19.3536a570.9824 570.9824 0 0 1-60.1088-11.776z" fill="#17A7E1" p-id="29111"></path><path d="M828.0064 551.424H464.9984v-3.584h354.4064c11.264 0 23.2448-2.4576 34.2016 3.2768a76.6976 76.6976 0 0 1-25.6 0.3072z" fill="#12A6E6" p-id="29112"></path><path d="M459.4688 815.616h-1.8432c-2.56-2.7648-1.7408-6.2464-1.7408-9.5232V562.4832c0-3.4816-2.9696-10.24 5.3248-9.3184a14.1312 14.1312 0 0 1 0.8192 7.9872v246.4768a14.2336 14.2336 0 0 1-0.8192 7.9872z" fill="#0FA6EE" p-id="29113"></path><path d="M475.8528 544.1536h352.1536c-2.6624 2.8672-6.2464 1.7408-9.4208 1.7408H485.376c-3.1744 0-6.7584 1.1264-9.5232-1.7408zM461.312 552.96c-6.0416 1.536-3.584 6.4512-3.584 10.24v252.6208c-5.4272-1.6384-2.56-6.144-2.56-9.1136V612.7616 558.08c0-4.5056-0.6144-9.3184 4.5056-11.9808h1.8432z" fill="#12A6E6" p-id="29114"></path><path d="M461.312 815.616V552.96c2.9696 2.6624 1.7408 6.2464 1.7408 9.4208V805.888c0 3.072 1.2288 7.0656-1.7408 9.728z" fill="#14A4E3" p-id="29115"></path><path d="M506.88 835.6864c2.56-6.656 9.0112-2.3552 13.2096-4.608a6.9632 6.9632 0 0 1 0.9216 2.2528c0 1.536-1.2288 2.048-2.4576 2.1504H506.88z" fill="#15A5E3" p-id="29116"></path><path d="M452.1984 498.5856c-2.048-1.2288 0-2.4576 0-3.6864a18.944 18.944 0 0 0 0.8192-10.24V256.512a20.48 20.48 0 0 1 0.8192-10.24h3.6864a14.9504 14.9504 0 0 1 2.56 11.1616v225.28a15.2576 15.2576 0 0 1-2.56 11.264z" fill="#14A3EC" p-id="29117"></path><path d="M457.6256 494.8992v-247.808h3.6864a14.1312 14.1312 0 0 1 0.8192 7.9872v231.8336a14.2336 14.2336 0 0 1-0.8192 7.9872z" fill="#0BA8E8" p-id="29118"></path><path d="M461.312 494.8992v-247.808c2.9696 2.6624 1.7408 6.2464 1.7408 9.4208v228.9664c0 3.1744 1.2288 6.7584-1.7408 9.4208z" fill="#16A2EA" p-id="29119"></path><path d="M453.9392 247.0912v237.4656c0 3.4816 1.3312 7.2704-1.7408 10.24V247.0912z" fill="#09A7E9" p-id="29120"></path><path d="M755.0976 500.3264c-2.7648 2.9696-6.2464 1.7408-9.5232 1.7408h-121.856c9.5232-3.7888 19.456-0.8192 29.184-1.8432h87.552a26.4192 26.4192 0 0 1 14.6432 0.1024z" fill="#0FA5EE" p-id="29121"></path><path d="M601.9072 197.2224a4.4032 4.4032 0 0 1 5.632 0c-1.8432 1.4336-3.3792 0.2048-5.632 0z" fill="#0EA7DC" p-id="29122"></path><path d="M189.0304 327.68v171.8272h-1.8432V327.68z" fill="#13A4E6" p-id="29123"></path><path d="M755.0976 500.3264h-14.6432a52.9408 52.9408 0 0 1 27.136 0z" fill="#0AA5E5" p-id="29124"></path><path d="M459.4688 545.8944a27.8528 27.8528 0 0 0-3.7888 15.6672v243.712c0 3.4816-1.4336 7.3728 1.7408 10.24a37.2736 37.2736 0 0 1-1.024 13.4144c-3.9936-0.7168-2.56-3.7888-2.56-5.7344V551.0144c0.2048-3.2768-0.9216-8.2944 5.632-5.12z" fill="#11A5E9" p-id="29125"></path></svg>
