<?xml version="1.0" standalone="no"?><!DOCTYPE svg PUBLIC "-//W3C//DTD SVG 1.1//EN" "http://www.w3.org/Graphics/SVG/1.1/DTD/svg11.dtd"><svg t="1768637206245" class="icon" viewBox="0 0 1483 1024" version="1.1" xmlns="http://www.w3.org/2000/svg" p-id="158128" xmlns:xlink="http://www.w3.org/1999/xlink" width="289.6484375" height="200"><path d="M1406.356 0H250.957c-40.778 0-77.026 36.248-77.026 77.027v212.955c-18.124-9.062-40.779-18.124-63.434-27.186-9.062-9.061-22.655-9.061-36.247-9.061-36.248 0-67.965 27.185-72.496 67.964-4.531 90.62-4.531 262.797 54.372 398.726 67.964 163.115 244.672 267.327 294.513 294.513 9.062 4.531 22.655 9.062 31.717 9.062s22.655-4.531 31.717-9.062c27.185-13.593 90.619-49.84 149.522-104.212h838.23c40.778 0 77.026-36.248 77.026-77.027V77.027C1483.382 36.247 1447.134 0 1406.356 0zM386.886 928.85c-45.31-27.186-194.831-113.275-249.203-244.673-45.31-108.743-45.31-253.735-45.31-330.761 36.248 18.124 81.558 31.717 126.868 31.717 63.433 0 122.336-40.779 167.646-81.558 45.31 40.779 104.212 81.558 167.646 81.558 45.31 0 90.62-13.593 126.867-31.717 4.53 77.026 0 222.018-45.31 330.761C581.72 811.044 432.196 901.664 386.887 928.85z m992.284-117.806c0 4.531-4.531 9.062-9.062 9.062H654.214c22.655-31.717 45.31-63.433 58.903-99.681 58.902-135.93 58.902-308.106 54.371-398.726 0-40.779-31.716-67.964-72.495-67.964-13.593 0-22.655 4.53-36.248 9.061-40.779 22.655-77.026 36.248-104.212 36.248-27.186-4.53-72.496-27.186-117.806-72.495-27.185-22.655-72.495-22.655-99.681 0-18.124 18.124-40.779 36.247-58.903 45.31V99.68c0-4.53 4.531-9.062 9.062-9.062h1082.903c4.53 0 9.062 4.531 9.062 9.062v711.363z" fill="#d4237a" p-id="158129"></path><path d="M1188.869 475.752c27.186-27.186 40.779-67.964 40.779-108.743 0-90.62-77.027-167.646-167.646-167.646s-167.646 72.495-167.646 167.646c0 40.779 18.124 81.557 40.778 108.743-77.026 45.31-131.398 126.867-131.398 222.018h90.62c0-90.62 72.495-167.646 167.646-167.646s167.646 72.495 167.646 167.646h90.62c0-95.15-54.372-176.708-131.399-222.018z m-126.867-185.77c40.778 0 77.026 36.248 77.026 77.027s-36.248 77.026-77.026 77.026-77.027-36.247-77.027-77.026 36.248-77.027 77.027-77.027z" fill="#d4237a" p-id="158130"></path></svg>