<?xml version="1.0" standalone="no"?><!DOCTYPE svg PUBLIC "-//W3C//DTD SVG 1.1//EN" "http://www.w3.org/Graphics/SVG/1.1/DTD/svg11.dtd"><svg t="1768625590652" class="icon" viewBox="0 0 1170 1024" version="1.1" xmlns="http://www.w3.org/2000/svg" p-id="25425" xmlns:xlink="http://www.w3.org/1999/xlink" width="228.515625" height="200"><path d="M1107.591837 0h-1044.897959a62.693878 62.693878 0 0 0-62.693878 62.693878v585.142857a62.693878 62.693878 0 0 0 62.693878 62.693877h150.130938a61.899755 61.899755 0 0 0-3.845224 20.897959v62.693878a62.693878 62.693878 0 0 0 62.693877 62.693878h146.285715v125.387755a41.795918 41.795918 0 0 0 41.795918 41.795918h250.77551a41.795918 41.795918 0 0 0 41.795919-41.795918v-125.387755h146.285714a62.693878 62.693878 0 0 0 62.693877-62.693878v-62.693878c0-7.356082-1.504653-14.336-3.866122-20.897959h150.151837a62.693878 62.693878 0 0 0 62.693877-62.693877v-585.142857a62.693878 62.693878 0 0 0-62.693877-62.693878z m-940.408164 585.142857a20.897959 20.897959 0 0 1-41.795918 0v-459.755102a20.897959 20.897959 0 0 1 41.795918 0v459.755102z m125.387756 0a20.897959 20.897959 0 0 1-41.795919 0v-459.755102a20.897959 20.897959 0 0 1 41.795919 0v459.755102z m125.387755 0a20.897959 20.897959 0 0 1-41.795919 0v-459.755102a20.897959 20.897959 0 0 1 41.795919 0v459.755102z m125.387755 0a20.897959 20.897959 0 0 1-41.795919 0v-459.755102a20.897959 20.897959 0 0 1 41.795919 0v459.755102z m125.387755 0a20.897959 20.897959 0 0 1-41.795918 0v-459.755102a20.897959 20.897959 0 0 1 41.795918 0v459.755102z m125.387755 0a20.897959 20.897959 0 0 1-41.795918 0v-459.755102a20.897959 20.897959 0 0 1 41.795918 0v459.755102z m125.387755 0a20.897959 20.897959 0 0 1-41.795918 0v-459.755102a20.897959 20.897959 0 0 1 41.795918 0v459.755102z m125.387755 0a20.897959 20.897959 0 0 1-41.795918 0v-459.755102a20.897959 20.897959 0 0 1 41.795918 0v459.755102z" fill="#40B047" p-id="25426"></path></svg>