<?xml version="1.0" standalone="no"?><!DOCTYPE svg PUBLIC "-//W3C//DTD SVG 1.1//EN" "http://www.w3.org/Graphics/SVG/1.1/DTD/svg11.dtd"><svg t="1768636085888" class="icon" viewBox="0 0 1024 1024" version="1.1" xmlns="http://www.w3.org/2000/svg" p-id="145825" xmlns:xlink="http://www.w3.org/1999/xlink" width="200" height="200"><path d="M753.92 181.4528a409.6 409.6 0 0 0-497.8176 650.3936l184.9344-241.6128h-110.08L303.5136 665.6H256l112.64-292.4544h50.7904l62.8736 163.1744 78.4384-102.5024V373.1456h46.4384l146.7392-191.6928z m36.864 30.464l-123.392 161.2288c47.0016 0 82.6368 13.1584 107.1616 39.7312 22.9376 24.576 34.4064 60.2112 34.4064 106.496 0 45.8752-11.8784 81.5104-35.2256 106.9056-24.576 26.2144-60.2112 39.3216-107.3152 39.3216h-105.6768v-153.088l-58.3168 76.1344 29.6448 76.9536h-47.9232l-13.1072-35.9424-175.9232 229.888a409.6 409.6 0 0 0 495.6672-647.6288z m-152.576 199.3216l-32.8192 42.9056v173.3632h52.8384c36.864 0 64.3072-9.0112 81.5104-26.624 16.7936-17.6128 25.3952-44.6464 25.3952-81.5104 0-37.6832-8.6016-64.7168-24.9856-81.92-17.2032-17.6128-44.2368-26.2144-81.1008-26.2144h-20.8384z m-293.7344 142.1312h98.7136l-48.3328-132.3008H393.216l-48.7424 132.3008zM512 972.8a460.8 460.8 0 1 1 0-921.6 460.8 460.8 0 0 1 0 921.6z" fill="#d81e06" p-id="145826"></path></svg>