<?xml version="1.0" standalone="no"?><!DOCTYPE svg PUBLIC "-//W3C//DTD SVG 1.1//EN" "http://www.w3.org/Graphics/SVG/1.1/DTD/svg11.dtd"><svg t="1768625310671" class="icon" viewBox="0 0 1024 1024" version="1.1" xmlns="http://www.w3.org/2000/svg" p-id="13049" xmlns:xlink="http://www.w3.org/1999/xlink" width="200" height="200"><path d="M 837.12 395.435 a 684.117 684.117 0 0 0 -30.8053 -186.453 c 25.344 -13.2267 47.872 -29.0133 67.584 -46.5067 a 369.92 369.92 0 0 1 102.4 232.96 H 837.12 Z M 734.123 70.3147 c 38.912 14.336 74.5813 35.2427 106.069 60.928 a 283.307 283.307 0 0 1 -50.0907 34.048 A 377.941 377.941 0 0 0 734.123 70.2293 Z M 605.013 0 C 470.187 0 350.635 64 273.92 162.987 a 462.933 462.933 0 0 1 109.312 -21.5893 c -4.52267 -3.41333 -9.216 -6.57067 -13.312 -10.1547 c 31.5733 -25.6853 67.1573 -46.592 106.069 -61.0133 a 352.853 352.853 0 0 0 -44.4587 69.9733 c 16.4693 0.512 32.6827 1.792 48.64 3.92533 c 27.5627 -50.0907 62.5493 -84.3093 101.376 -94.0373 v 119.381 c 16.0427 5.97333 31.744 12.8 46.9333 20.48 V 49.92 c 48.4693 12.288 91.136 61.952 120.576 134.059 c -28.16 10.5813 -59.136 17.92 -91.8187 21.76 c 18.7733 11.3493 37.0347 23.6373 54.016 37.376 c 18.3467 -4.26667 36.096 -9.30133 52.9067 -15.616 c 8.27733 27.392 14.6773 57.2587 19.2 88.6613 c 29.8667 37.7173 53.9307 80.2133 71.0827 126.123 h 121.771 a 369.323 369.323 0 0 1 -96.8533 226.731 a 463.872 463.872 0 0 1 -18.432 80.896 A 417.792 417.792 0 0 0 1024 418.987 A 418.901 418.901 0 0 0 605.013 0 Z m 45.824 581.632 a 685.056 685.056 0 0 0 -30.72 -186.539 a 331.093 331.093 0 0 0 67.584 -46.5067 a 369.92 369.92 0 0 1 102.315 233.045 h -139.093 Z m 36.864 279.893 a 332.971 332.971 0 0 0 -67.6693 -46.5067 c 17.7493 -55.3813 28.7573 -118.784 30.8053 -186.453 h 139.093 a 369.835 369.835 0 0 1 -102.229 232.96 Z m -139.861 92.16 c 21.504 -25.7707 40.3627 -58.0267 55.9787 -94.976 c 18.5173 9.984 35.4133 21.3333 50.0907 34.048 a 372.053 372.053 0 0 1 -106.069 61.0133 Z m -105.557 20.224 V 815.616 c 43.3493 2.304 84.224 10.5813 120.576 24.32 c -29.44 72.0213 -72.0213 121.771 -120.576 133.973 Z m 0 -345.344 h 162.048 a 658.688 658.688 0 0 1 -26.2827 167.851 a 445.867 445.867 0 0 0 -135.765 -27.3067 V 628.565 Z m 0 -187.477 a 447.147 447.147 0 0 0 135.68 -27.3067 c 15.0187 49.664 24.4053 106.667 26.368 167.851 h -162.133 V 441.173 Z m 0 -204.8 c 48.5547 12.2027 91.136 61.8667 120.576 133.973 a 404.48 404.48 0 0 1 -120.576 24.32 V 236.203 Z m 211.627 81.152 c -14.6773 12.6293 -31.5733 24.064 -50.0907 33.9627 a 377.941 377.941 0 0 0 -55.9787 -94.976 c 38.912 14.4213 74.5813 35.2427 106.069 61.0133 Z m -258.56 77.1413 a 404.48 404.48 0 0 1 -120.576 -24.32 c 29.44 -72.1067 72.1067 -121.771 120.576 -133.973 v 158.293 Z m 0 187.051 H 233.387 a 657.664 657.664 0 0 1 26.2827 -167.851 a 447.147 447.147 0 0 0 135.765 27.3067 v 140.544 Z m 0 187.477 a 445.867 445.867 0 0 0 -135.68 27.3067 a 657.664 657.664 0 0 1 -26.368 -167.851 h 162.133 v 140.544 Z m 0 204.8 c -48.4693 -12.2027 -91.136 -61.952 -120.576 -133.973 c 36.352 -13.6533 77.2267 -22.016 120.576 -24.32 v 158.293 Z m -211.627 -81.152 c 14.7627 -12.7147 31.5733 -24.064 50.0907 -34.048 c 15.616 36.9493 34.4747 69.2053 55.9787 95.0613 a 371.797 371.797 0 0 1 -106.069 -61.0133 Z M 47.7013 628.565 H 186.88 c 2.13333 67.6693 13.056 131.072 30.72 186.453 c -25.2587 13.2267 -47.7867 29.0133 -67.4987 46.5067 a 369.835 369.835 0 0 1 -102.4 -232.96 Z m 102.4 -279.893 c 19.6267 17.4933 42.24 33.28 67.584 46.4213 a 685.056 685.056 0 0 0 -30.8053 186.539 H 47.7867 a 369.92 369.92 0 0 1 102.315 -232.96 Z m 139.776 -92.16 c -21.504 25.7707 -40.3627 58.0267 -55.9787 94.8907 a 281.173 281.173 0 0 1 -50.0907 -33.9627 c 31.5733 -25.7707 67.1573 -46.592 106.069 -61.0133 Z m 129.024 -70.3147 a 418.901 418.901 0 1 0 0 837.803 a 418.901 418.901 0 0 0 0 -837.803 Z" fill="#2c7dd5" p-id="13050"></path></svg>
