<?xml version="1.0" standalone="no"?><!DOCTYPE svg PUBLIC "-//W3C//DTD SVG 1.1//EN" "http://www.w3.org/Graphics/SVG/1.1/DTD/svg11.dtd"><svg t="1768629660179" class="icon" viewBox="0 0 1024 1024" version="1.1" xmlns="http://www.w3.org/2000/svg" p-id="105931" xmlns:xlink="http://www.w3.org/1999/xlink" width="200" height="200"><path d="M564.032 768V384.256c0-61.44 64-61.44 64 0V768c0 44.48-64 50.368-64 0z m-191.808 0V384.256c0-61.44 64-61.44 64 0V768c0 50.368-64 44.48-64 0z m575.616-575.68h-191.872v-64c0-93.312-29.952-128-128-128H372.224c-96.384 0-128 31.488-128 128v64H52.48c-69.184 0-69.184 64 0 64h895.36c69.248 0 69.248-64 0-64z m-639.616-64c0-62.08 3.84-63.872 63.936-63.872h255.936c59.968 0 63.872 1.408 63.872 63.872v64H308.224v-64z m447.744 895.616H244.288c-92.608 0-128.064-35.392-128.064-128V384.256c0-64.64 63.872-64.64 63.872 0v511.68c0 62.08 0 64 64.064 64h511.616c62.08 0 64 0.192 64-64V384.192c0-63.104 63.872-63.104 63.872 0v511.744c0.192 90.432-31.104 127.872-127.616 127.872l-0.064 0.128z" fill="#16A353" p-id="105932"></path></svg>