<?xml version="1.0" standalone="no"?><!DOCTYPE svg PUBLIC "-//W3C//DTD SVG 1.1//EN" "http://www.w3.org/Graphics/SVG/1.1/DTD/svg11.dtd"><svg t="1780663164440" class="icon" viewBox="0 0 1024 1024" version="1.1" xmlns="http://www.w3.org/2000/svg" p-id="5925" xmlns:xlink="http://www.w3.org/1999/xlink" width="200" height="200"><path d="M296.557568 953.96864c-58.912768 0.034816-117.810176-22.27712-162.669568-66.895872l-3.398656-3.417088c-43.160576-42.909696-67.014656-100.44416-67.014656-161.770496s23.836672-118.8608 67.151872-161.978368l81.482752-75.916288c14.123008-13.20448 36.381696-12.48768 49.664 1.640448 13.264896 14.11072 12.52864 36.248576-1.647616 49.43872l-80.64 75.127808c-29.191168 29.073408-45.717504 69.047296-45.717504 111.686656 0 42.635264 16.525312 82.576384 46.5408 112.437248l3.414016 3.418112c62.175232 61.80352 163.51232 61.80352 225.823744-0.139264l175.57504-174.857216c63.807488-63.617024 66.654208-160.457728 6.418432-220.434432l-3.226624-3.212288c-4.496384-4.458496-18.808832-15.511552-32.29696-19.320832-18.654208-5.297152-29.483008-24.649728-24.162304-43.236352 5.351424-18.568192 24.779776-29.330432 43.450368-24.06912 28.040192 7.959552 52.615168 27.092992 62.70464 37.154816l3.228672 3.211264c88.070144 87.719936 85.254144 227.985408-6.385664 319.37536l-175.62624 174.859264C414.386176 931.69152 355.454976 953.96864 296.557568 953.96864L296.557568 953.96864zM407.624704 624.479232c-8.992768 0-18.002944-3.416064-24.849408-10.248192-88.843264-88.48896-87.092224-218.606592 4.169728-309.419008l175.593472-174.857216c89.649152-89.27232 235.587584-89.342976 325.342208 0l3.330048 3.332096c43.24352 43.031552 67.098624 100.529152 67.098624 161.856512-0.033792 61.309952-23.888896 118.827008-67.204096 161.926144l-82.543616 75.845632c-14.176256 13.085696-36.484096 12.23168-49.667072-1.980416-13.14304-14.195712-12.255232-36.334592 2.028544-49.437696l81.514496-74.873856c29.000704-28.919808 45.57824-68.85888 45.57824-111.497216 0-42.621952-16.541696-82.543616-46.57664-112.438272l-3.326976-3.330048c-62.193664-61.907968-163.547136-61.94176-225.875968 0.067584L436.642816 354.282496c-63.4624 63.171584-65.1776 149.711872-4.170752 210.473984 13.729792 13.667328 13.729792 35.806208 0 49.472512C425.608192 621.063168 416.618496 624.479232 407.624704 624.479232L407.624704 624.479232z" fill="#1296db" p-id="5926"></path></svg>