<?xml version="1.0" standalone="no"?><!DOCTYPE svg PUBLIC "-//W3C//DTD SVG 1.1//EN" "http://www.w3.org/Graphics/SVG/1.1/DTD/svg11.dtd"><svg t="1768624888133" class="icon" viewBox="0 0 1024 1024" version="1.1" xmlns="http://www.w3.org/2000/svg" p-id="5881" xmlns:xlink="http://www.w3.org/1999/xlink" width="200" height="200"><path d="M235.264 893.4912c-199.68-163.84-225.28-460.8-61.44-660.48 163.84-199.68 460.8-225.28 660.48-61.44 97.28 81.92 158.72 194.56 168.96 317.44 10.24 122.88-25.6 245.76-107.52 343.04-15.36 20.48-35.84 40.96-56.32 61.44l-51.2-56.32c15.36-15.36 35.84-30.72 51.2-51.2 66.56-81.92 97.28-184.32 87.04-286.72-10.24-102.4-61.44-199.68-138.24-266.24-168.96-138.24-414.72-112.64-552.96 51.2-138.24 168.96-112.64 414.72 51.2 552.96l-51.2 56.32z" fill="#0C8AFF" p-id="5882"></path><path d="M496.384 99.8912h66.56v112.64h-66.56zM211.8656 252.7744l47.0528-47.104 79.616 79.6672-47.0528 47.104zM117.504 494.1312h112.64v66.56h-112.64zM218.7776 799.4368l79.616-79.616 47.104 47.0528-79.6672 79.616zM733.3376 762.7776l47.0528-47.0528 79.6672 79.6672-47.104 47.0528zM844.544 489.0112h112.64v66.56h-112.64zM726.016 288.0512l79.7184-79.616 47.0528 47.0528L773.12 335.1552zM414.464 637.4912c-35.84-35.84-35.84-87.04 0-122.88 5.12-5.12 15.36-10.24 20.48-15.36l204.8-102.4c5.12-5.12 10.24 0 15.36 5.12v10.24l-102.4 204.8c-20.48 40.96-71.68 56.32-112.64 35.84-15.36-5.12-20.48-10.24-25.6-15.36z" fill="#0C8AFF" p-id="5883"></path></svg>