<?xml version="1.0" standalone="no"?><!DOCTYPE svg PUBLIC "-//W3C//DTD SVG 1.1//EN" "http://www.w3.org/Graphics/SVG/1.1/DTD/svg11.dtd"><svg t="1780892546799" class="icon" viewBox="0 0 1024 1024" version="1.1" xmlns="http://www.w3.org/2000/svg" p-id="5755" xmlns:xlink="http://www.w3.org/1999/xlink" width="200" height="200"><path d="M307.645953 449.947065c-41.957884 7.035621-64.768646 57.594872-42.579577 94.384772 25.051927 41.538306 83.613877 41.952768 109.031656 0.77264 28.687424-46.478591-11.714948-104.33442-66.452079-95.157412m191.755207-0.117687c-43.45967 8.051309-65.208692 60.383536-40.540526 97.549523 22.693075 34.190559 71.351429 38.023054 99.312265 7.821052 41.228738-44.534201 1.10779-116.466388-58.771739-105.370575m192.005931 0.117687c-41.957884 7.035621-64.768646 57.594872-42.579577 94.384772 25.051927 41.538306 83.613877 41.952768 109.031656 0.77264 28.687424-46.478591-11.714948-104.33442-66.452079-95.157412M500.424523 641.727856c-10.799038 2.453513-13.917737 3.612472-20.666816 7.682898-41.630408 25.108212-42.090922 83.636902-0.862184 109.085382 45.184036 27.889201 102.656104-10.141528 95.474655-63.1722-4.794456-35.382777-40.427957-61.209901-73.945655-53.59608" fill="#FBFBFB" p-id="5756"></path><path d="M312.125725 258.086963c-10.990919 1.888105-16.619416 3.622705-21.490624 6.631393-0.844275 0.521915-3.223594 1.865079-5.290786 2.983103-24.941916 13.526301-36.436841 57.766285-21.278276 81.902302 0.52959 0.844275 1.88043 3.223594 2.998453 5.290787 13.526301 24.941916 57.766285 36.436841 81.902302 21.278276 0.844275-0.52959 3.223594-1.88043 5.290787-2.998454 24.941916-13.526301 36.436841-57.766285 21.278276-81.902302-0.52959-0.844275-1.88043-3.223594-2.998454-5.290787-9.563328-17.635103-39.540189-31.476088-60.411678-27.894318m191.880569 0.04861c-48.796508 7.224943-71.504934 60.864516-42.43119 100.2205 5.656639 7.654755 18.819646 17.980488 24.778178 19.436223 1.547837 0.378644 2.814248 1.038713 2.814248 1.465967 0 0.941494 9.284461 2.796339 18.420534 3.684107 9.240968 0.898001 23.486182-1.709016 30.700891-5.618263 3.095673-1.678315 6.575107-3.489668 7.731508-4.026933 20.234446-9.399589 33.852849-46.153673 26.031797-70.256431-6.02505-18.566364-21.989513-36.769434-35.042508-39.95721-1.547837-0.378644-2.814248-1.038713-2.814249-1.465967 0-1.882988-23.046136-4.541173-30.189209-3.481993m191.880569-0.04861c-10.990919 1.888105-16.619416 3.622705-21.490624 6.631393-0.844275 0.521915-3.223594 1.865079-5.290787 2.983103-24.941916 13.526301-36.436841 57.766285-21.278276 81.902302 0.52959 0.844275 1.88043 3.223594 2.998454 5.290787 13.526301 24.941916 57.766285 36.436841 81.902302 21.278276 0.844275-0.52959 3.223594-1.88043 5.290787-2.998454 24.941916-13.526301 36.436841-57.766285 21.278276-81.902302-0.52959-0.844275-1.88043-3.223594-2.998454-5.290787-9.563328-17.635103-39.540189-31.476088-60.411678-27.894318m-383.761138 383.761138c-10.990919 1.888105-16.619416 3.622705-21.490624 6.631392-0.844275 0.521915-3.223594 1.865079-5.290786 2.983104-24.941916 13.526301-36.436841 57.766285-21.278276 81.902302 0.52959 0.844275 1.88043 3.223594 2.998453 5.290786 13.526301 24.941916 57.766285 36.436841 81.902302 21.278276 0.844275-0.52959 3.223594-1.88043 5.290787-2.998453 24.941916-13.526301 36.436841-57.766285 21.278276-81.902302-0.52959-0.844275-1.88043-3.223594-2.998454-5.290787-9.563328-17.635103-39.540189-31.476088-60.411678-27.894318m383.761138 0c-10.990919 1.888105-16.619416 3.622705-21.490624 6.631392-0.844275 0.521915-3.223594 1.865079-5.290787 2.983104-24.941916 13.526301-36.436841 57.766285-21.278276 81.902302 0.52959 0.844275 1.88043 3.223594 2.998454 5.290786 13.526301 24.941916 57.766285 36.436841 81.902302 21.278276 0.844275-0.52959 3.223594-1.88043 5.290787-2.998453 24.941916-13.526301 36.436841-57.766285 21.278276-81.902302-0.52959-0.844275-1.88043-3.223594-2.998454-5.290787-9.563328-17.635103-39.540189-31.476088-60.411678-27.894318" fill="#7C7C7C" p-id="5757"></path><path d="M280.360537 0.967001c-0.258399 0.230257-9.681014 0.75473-20.938008 1.161517-18.681492 0.677978-28.674632 1.463409-39.911158 3.136608-2.251399 0.335151-9.379122 1.302229-15.839102 2.151621-6.459979 0.849391-12.216396 1.906014-12.792038 2.348618-0.575642 0.442605-4.615367 1.399449-8.977452 2.123478-4.362085 0.724029-7.931064 1.673199-7.931063 2.10557 0 0.434929-1.957182 1.10779-4.349293 1.496668-2.392111 0.388878-5.730833 1.315021-7.419382 2.059518-1.688549 0.741938-7.444966 3.077764-12.792038 5.188451s-9.952205 4.121595-10.23363 4.464421c-0.281425 0.342827-3.620147 2.197672-7.419382 4.124153-3.799235 1.923923-6.9077 3.753184-6.907701 4.062751 0 0.312126-1.496668 1.222919-3.32593 2.026259-1.829261 0.80334-5.930389 3.333605-9.115606 5.62338-3.185217 2.287216-6.805364 4.850741-8.046192 5.695015-3.88878 2.642835-9.657989 7.214709-10.724844 8.493913-0.56285 0.67542-3.556187 3.356631-6.65186 5.955973-7.207034 6.055751-18.382158 17.230875-24.437909 24.43791-2.599342 3.095673-5.280553 6.08901-5.955973 6.651859-1.279204 1.066856-5.851078 6.836065-8.493913 10.724845-0.844275 1.240828-3.400124 4.860974-5.677107 8.046192-2.279541 3.185217-4.753521 7.286345-5.498018 9.115606-0.744497 1.829261-1.714133 3.32593-2.151621 3.32593-0.440046 0-1.320138 1.266412-1.954623 2.814248-0.631927 1.547837-2.798898 5.807585-4.812365 9.466108-2.016025 3.658523-3.77621 7.112373-3.914363 7.675223-0.135596 0.56285-1.240828 3.169867-2.456071 5.792235-1.212685 2.622368-2.489331 6.191346-2.837274 7.931063-0.347943 1.739717-0.972195 3.162192-1.386657 3.162192-0.41702 0-1.345722 2.775872-2.064635 6.170879-0.721471 3.392448-1.662965 6.388344-2.095336 6.654418-0.432371 0.266074-1.361073 3.822261-2.064635 7.900363-0.703562 4.08066-1.652731 7.908038-2.108128 8.509263-0.457955 0.601226-1.581096 7.508926-2.494447 15.350446-0.91591 7.841519-2.05696 15.179032-2.535382 16.304731-5.34963 12.533639-5.329163 571.292413 0.017909 578.200114 0.437488 0.56285 1.110349 4.70747 1.499226 9.210268 0.388878 4.502797 1.330372 11.410498 2.095336 15.350445 3.11614 16.074475 4.832832 23.58596 5.615705 24.558154 0.452838 0.565408 1.409683 3.673873 2.123478 6.910259 0.716354 3.236386 1.650173 5.884337 2.079986 5.884338 0.427254 0 1.105232 1.496668 1.504343 3.32593 0.40167 1.829261 2.049284 6.21693 3.66364 9.747533 1.614355 3.533161 2.937052 6.871883 2.937052 7.419382 0 0.550058 0.38632 0.997779 0.859625 0.997778 0.473305 0 1.468526 1.842053 2.210464 4.093453 0.741938 2.251399 1.680874 4.093452 2.085102 4.093452 0.406787 0 1.309905 1.38154 2.00835 3.070089 0.698445 1.688549 1.627147 3.070089 2.059518 3.070089 0.434929 0 1.079648 1.164075 1.437825 2.583992 0.355619 1.422475 1.512019 3.448733 2.568641 4.505355 1.054064 1.054064 2.207906 2.829599 2.560966 3.945065 0.355619 1.115466 1.465968 2.97287 2.468864 4.12927a81.797407 81.797407 0 0 1 3.80691 4.866091 247.569427 247.569427 0 0 0 57.170176 57.170176c1.519694 1.089882 3.709691 2.804015 4.866091 3.80691 1.1564 1.002896 3.013804 2.113245 4.12927 2.468864 1.115466 0.35306 2.891001 1.506902 3.945065 2.560966 1.056622 1.056622 3.082881 2.213023 4.505355 2.568641 1.419916 0.358177 2.583992 1.000337 2.583992 1.43015 0 0.427254 3.108465 2.335826 6.907701 4.236723 3.799235 1.903455 7.061205 3.804352 7.247968 4.226489 0.189322 0.422137 0.782873 0.767522 1.322697 0.767522 0.539824 0 3.965532 1.394332 7.611262 3.10079 3.645731 1.703899 8.002699 3.37454 9.678456 3.709691 1.678315 0.335151 3.049622 0.949169 3.049622 1.363631 0 0.41702 2.775872 1.345722 6.170879 2.064635 3.392448 0.721471 6.388344 1.662965 6.654418 2.095336 0.266074 0.432371 3.822261 1.361073 7.900363 2.064635 4.08066 0.703562 7.887571 1.634822 8.465771 2.07231 0.575642 0.437488 7.713599 1.560629 15.862127 2.497006 8.14597 0.938936 15.734207 2.095336 16.859906 2.573758 12.582248 5.341955 570.056702 5.316371 577.17675-0.025584 0.56285-0.422137 4.477213-1.059181 8.698586-1.412241 4.221373-0.355619 8.826506-0.839158 10.233631-1.074531 1.407124-0.235373 4.860974-0.741938 7.675222-1.1257 2.814248-0.383761 5.577329-1.048947 6.140179-1.476201 0.56285-0.427254 4.592342-1.371306 8.954426-2.095336 4.362085-0.724029 7.931064-1.673199 7.931064-2.105569 0-0.434929 1.957182-1.10779 4.349293-1.496668 2.392111-0.388878 5.730833-1.315021 7.419381-2.059519 1.688549-0.741938 7.444966-3.077764 12.792038-5.18845s9.952205-4.103686 10.233631-4.428604c0.281425-0.322359 3.620147-2.200231 7.416823-4.170204 3.799235-1.969974 6.9077-3.814586 6.907701-4.098569 0.002558-0.286542 1.499227-1.181984 3.328488-1.990441s5.167983-2.778431 7.419382-4.377435c2.251399-1.596446 5.244736-3.689224 6.65186-4.648627 1.407124-0.959403 3.167309-2.325592 3.911805-3.03683 0.741938-0.711237 1.662965-1.294554 2.046726-1.297112 0.381203-0.002558 2.995895-2.115803 5.810144-4.699795 2.814248-2.581433 6.669769-5.899688 8.565548-7.373331 4.57955-3.556187 18.627766-17.724648 24.558155-24.762827 2.607017-3.095673 5.546628-6.229722 6.531614-6.966544 0.984987-0.734263 1.790885-1.749951 1.790886-2.253957 0-0.506565 1.036155-2.003233 2.302566-3.328488 1.266412-1.325255 2.993337-3.461525 3.837612-4.745846 0.844275-1.286879 3.407799-4.942843 5.695015-8.128061 2.289775-3.185217 4.82004-7.286345 5.62338-9.115606 0.80334-1.829261 1.714133-3.32593 2.026259-3.32593 0.309567 0 2.138829-3.108465 4.062751-6.907701 1.926481-3.799235 3.781326-7.137957 4.124153-7.419382 0.342827-0.281425 2.353735-4.886558 4.464421-10.23363 2.110686-5.347072 4.474655-11.131631 5.252411-12.855998 0.777756-1.724367 1.721808-5.063089 2.097894-7.419382 0.378644-2.356293 1.013129-4.285333 1.4148-4.285333 0.40167 0 1.31758-3.338722 2.03905-7.419382 0.718913-4.08066 1.721808-8.207372 2.225815-9.171891 0.504006-0.96452 1.647614-8.102477 2.540499-15.862127 0.892884-7.75965 2.00835-15.030645 2.479097-16.156344 5.057972-12.111501 5.91248-525.826952 0.94661-569.501528-1.890663-16.624532-4.093452-32.455959-5.12449-36.841069-0.596109-2.532824-1.788327-8.058984-2.65051-12.277798-0.864742-4.221373-1.939273-8.135736-2.39467-8.698586-0.452838-0.565408-1.409683-3.673873-2.123478-6.910259-0.716354-3.236386-1.629706-5.884337-2.033934-5.884337-0.40167 0-0.995221-1.31758-1.31758-2.92426-0.319801-1.609238-1.990441-5.996907-3.709691-9.747533C999.186082 144.879986 997.778957 141.359617 997.778957 140.812118c0-0.550058-0.38632-0.997779-0.859625-0.997779-0.473305 0-1.468526-1.842053-2.210464-4.093452-0.741938-2.251399-1.680874-4.093452-2.085102-4.093452-0.406787 0-1.309905-1.38154-2.00835-3.070089-0.698445-1.688549-1.627147-3.070089-2.059518-3.070089-0.434929 0-1.079648-1.164075-1.437825-2.583992-0.355619-1.422475-1.442942-3.384773-2.412578-4.364643-0.972195-0.977312-2.315359-3.001012-2.985662-4.497681-1.322697-2.947286-3.870871-6.321825-6.710703-8.882791-0.984987-0.890326-1.790885-2.200231-1.790885-2.916585 0-0.713796-0.921027-1.872754-2.046726-2.576316-1.125699-0.703562-2.046726-1.65529-2.046726-2.115803 0-3.082881-30.035705-33.768422-41.269673-42.162557-3.765976-2.814248-7.734066-5.835728-8.818831-6.71582-6.380669-5.170542-17.458573-12.216396-19.211083-12.216396-0.721471 0-1.312463-0.483539-1.312463-1.07709 0-0.590992-1.38154-1.55807-3.070089-2.146504-1.688549-0.588434-3.070089-1.412241-3.070089-1.829261 0-0.41702-1.842053-1.368748-4.093452-2.110686-2.251399-0.741938-4.093452-1.737159-4.093452-2.210464 0-0.473305-0.460513-0.859625-1.020805-0.859625-0.560291 0-3.934831-1.376423-7.496134-3.059856-3.563862-1.683432-7.938739-3.351514-9.724507-3.709691-1.788327-0.358177-3.249178-0.97987-3.249178-1.38154 0-0.404228-2.647952-1.31758-5.884337-2.033934-3.236386-0.713796-6.344851-1.665523-6.907701-2.113245-0.56285-0.447721-4.0167-1.350839-7.675223-2.00835s-7.68034-1.609238-8.936517-2.113244c-1.256178-0.504006-8.624392-1.662965-16.373809-2.5712-7.749417-0.910793-15.010177-2.046726-16.135876-2.525148C794.07087 1.854769 283.479235-1.811429 280.360537 0.967001m59.388315 258.644773c68.460429 24.097641 52.380837 124.274648-19.947904 124.274649-77.860018 0-87.402878-107.483819-11.256993-126.774213 5.324046-1.348281 24.675841 0.202114 31.204897 2.499564m192.648091 0.204673c68.186679 25.118446 51.198853 124.353959-21.227108 124.006016-60.015125-0.2891-86.133908-73.914953-40.028845-112.830892 16.187045-13.659338 41.814614-18.336107 61.255953-11.175124m191.113046-0.204673c68.460429 24.097641 52.380837 124.274648-19.947904 124.274649-77.860018 0-87.402878-107.483819-11.256993-126.774213 5.324046-1.348281 24.675841 0.202114 31.204897 2.499564m-387.186845 190.31994c48.141555 14.311732 63.932047 72.400376 29.183755 107.366133-45.473136 45.759678-120.726137 5.132166-108.760464-58.715454 6.436953-34.336388 46.117855-58.597767 79.576709-48.650679m194.881581 0.790548c43.464786 15.386263 58.861283 66.037617 30.908122 101.678793-25.287301 32.241052-75.57536 32.241052-100.862661 0-28.334364-36.127273-11.428407-89.132362 32.522478-101.960217 3.377098-0.984987 6.600692-1.964857 7.163541-2.174647 3.146841-1.171751 25.036577 0.603784 30.26852 2.456071m188.879557-0.790548c48.141555 14.311732 63.932047 72.400376 29.183755 107.366133-45.473136 45.759678-120.726137 5.132166-108.760465-58.715454 6.436953-34.336388 46.117855-58.597767 79.57671-48.650679m-380.33543 193.441198c68.460429 24.097641 52.380837 124.274648-19.947904 124.274648-77.860018 0-87.402878-107.483819-11.256993-126.774212 5.324046-1.348281 24.675841 0.202114 31.204897 2.499564m186.328824-2.097894c27.479856 5.211476 50.075712 33.5791 50.075712 62.870308 0 56.847816-69.184458 85.773173-109.451235 45.759678-46.076921-45.790379-5.052855-120.848941 59.375523-108.629986m197.432313 2.097894c68.460429 24.097641 52.380837 124.274648-19.947904 124.274648-77.860018 0-87.402878-107.483819-11.256993-126.774212 5.324046-1.348281 24.675841 0.202114 31.204897 2.499564" fill="#1C1C1C" p-id="5758"></path><path d="M305.01591 258.048587c-3.064972 0.859625-5.828052 1.844612-6.140178 2.192556-0.309567 0.347943 0.585875 0.324918 1.993-0.051169 10.891141-2.914026 24.604206-2.960078 37.864432-0.125362 1.407124 0.301892 0.716354-0.207231-1.535045-1.130816-5.871545-2.404903-24.877955-2.929377-32.182209-0.885209m193.873569-0.583317c-2.251399 0.493773-5.244736 1.407124-6.65186 2.031376l-2.558408 1.133375 2.558408-0.524474c13.723298-2.814248 24.977733-2.816807 38.887795-0.010234 1.407124 0.283983 0.716354-0.22514-1.535044-1.133374-4.773989-1.923923-24.389299-2.878209-30.700891-1.496669m189.887569 0.583317c-3.064972 0.859625-5.828052 1.844612-6.140178 2.192556-0.309567 0.347943 0.585875 0.324918 1.992999-0.051169 10.891141-2.914026 24.604206-2.960078 37.864432-0.125362 1.407124 0.301892 0.716354-0.207231-1.535044-1.130816-5.871545-2.404903-24.877955-2.929377-32.182209-0.885209m-399.060415 5.84852c-7.352863 3.804352-17.2232 12.316174-21.485507 18.530546-3.778768 5.508252-8.685794 14.935983-8.087126 15.534651 0.258399 0.258399 2.228373-2.995895 4.377435-7.232618 4.349293-8.570665 14.495937-19.679271 21.009643-23.002643 2.16953-1.105232 4.20858-2.440721 4.533499-2.970311 0.327476-0.527032 1.964857-1.258737 3.640614-1.627147 1.675757-0.368411 3.310579-1.094998 3.63038-1.614355 1.031038-1.668082-1.038713-1.020805-7.618938 2.381877m52.08662-3.057297c0 0.22514 3.466642 2.166971 7.703365 4.316034 8.573224 4.351851 19.68183 14.498496 23.005201 21.012201 1.105232 2.16953 2.440721 4.20858 2.970312 4.533498 0.527032 0.327476 1.258737 1.964857 1.627147 3.640614 0.368411 1.675757 1.143608 3.338722 1.724366 3.699458 4.674211 2.888442-7.777559-17.220641-14.723635-23.780399-6.559757-6.193905-22.306756-15.667688-22.306756-13.421406m140.712417 2.45863c-15.493716 7.974556-29.828474 25.916669-32.875537 41.149427-1.066856 5.33428 0.383761 3.581771 2.195113-2.655627 4.791897-16.478703 17.279485-30.915797 32.982991-38.127948 2.392111-1.097557 4.349293-2.243723 4.349293-2.545616 0-0.974753-1.435267-0.504006-6.65186 2.179764m51.679833-1.813911c0 0.501448 1.266412 1.22036 2.814249 1.599004 12.745987 3.113582 29.593101 22.061149 34.640838 38.964548 1.002896 3.359189 1.993 5.336838 2.200231 4.390227 1.074531-4.894234-8.539965-22.780061-16.555456-30.792993-8.135736-8.133178-23.099862-17.307627-23.099862-14.160786m139.282268 2.412578c-7.352863 3.804352-17.2232 12.316174-21.485507 18.530546-3.778768 5.508252-8.685794 14.935983-8.087127 15.534651 0.258399 0.258399 2.228373-2.995895 4.377436-7.232618 4.349293-8.570665 14.495937-19.679271 21.009643-23.002643 2.16953-1.105232 4.20858-2.440721 4.533498-2.970311 0.327476-0.527032 1.964857-1.258737 3.640614-1.627147 1.675757-0.368411 3.310579-1.094998 3.63038-1.614355 1.031038-1.668082-1.038713-1.020805-7.618937 2.381877m52.08662-3.057297c0 0.22514 3.466642 2.166971 7.703365 4.316034 8.573224 4.351851 19.68183 14.498496 23.005201 21.012201 1.105232 2.16953 2.440721 4.20858 2.970311 4.533498 0.527032 0.327476 1.258737 1.964857 1.627147 3.640614 0.368411 1.675757 1.143608 3.338722 1.724367 3.699458 4.674211 2.888442-7.777559-17.220641-14.723636-23.780399-6.559757-6.193905-22.306756-15.667688-22.306755-13.421406m-467.792035 43.451994c-2.07231 7.140516-1.775535 28.214119 0.475864 33.543282 0.949169 2.251399 1.483876 2.942169 1.184543 1.535045-2.775872-13.114397-2.911468-25.394754-0.383762-35.15252 1.486435-5.748742 0.396553-5.684782-1.276645 0.074193m122.401894-2.786105c2.816807 13.173241 2.819365 24.880514 0.005117 37.864432-0.304451 1.407124 0.235373 0.716354 1.199893-1.535045 2.507239-5.856195 2.507239-28.938148 0-34.794343-0.96452-2.251399-1.506902-2.942169-1.20501-1.535044m261.359244 2.786105c-2.07231 7.140516-1.775535 28.214119 0.475863 33.543282 0.949169 2.251399 1.483876 2.942169 1.184543 1.535045-2.775872-13.114397-2.911468-25.394754-0.383761-35.15252 1.486435-5.748742 0.396553-5.684782-1.276645 0.074193m122.401894-2.786105c2.816807 13.173241 2.819365 24.880514 0.005116 37.864432-0.304451 1.407124 0.235373 0.716354 1.199893-1.535045 1.353398-3.16475 1.752509-7.114931 1.75251-17.397171s-0.399112-14.232421-1.75251-17.397172c-0.96452-2.251399-1.506902-2.942169-1.205009-1.535044m-316.124517 14.071241c-0.347943 3.799235-0.253282 9.210267 0.207231 12.024516 0.685653 4.182996 0.846833 2.92426 0.880093-6.907701 0.04861-13.753999-0.194439-14.902724-1.087324-5.116815m126.707694 4.860975c0.007675 11.042087 0.097219 11.650988 0.890326 6.035283 0.496331-3.515252 0.493773-8.880233-0.007675-12.280356-0.78799-5.34963-0.887767-4.640951-0.882651 6.245073m-125.262193 14.408951c0 6.112036 9.240968 22.815879 16.811296 30.383649 8.135736 8.133178 23.099862 17.307627 23.099862 14.160786 0-0.501448-1.266412-1.22036-2.814248-1.599005-12.67691-3.095673-29.721021-22.209536-34.518036-38.708707-1.698783-5.843403-2.578875-7.291462-2.578874-4.236723m122.271415 4.236723c-3.167309 10.891141-7.511485 17.778374-17.118305 27.126796-6.101802 5.940622-7.951531 7.209593-16.010515 11.006269-2.471422 1.164075-4.244398 2.363969-3.939948 2.668419 0.972195 0.972195 12.349433-5.434058 17.763024-10.000815 10.573899-8.926284 19.315977-22.529337 21.500858-33.456296 1.066856-5.33428-0.383761-3.581771-2.195114 2.655627m-311.048636 5.531277c2.583992 8.212488 13.175799 21.815541 21.357587 27.42613 5.469875 3.750626 14.892491 8.649976 15.488599 8.053867 0.258399-0.258399-2.995895-2.228373-7.232618-4.377436-8.570665-4.349293-19.679271-14.495937-23.002643-21.009643-1.105232-2.16953-2.440721-4.20858-2.970311-4.533498-0.527032-0.327476-1.258737-1.964857-1.627147-3.640614-0.368411-1.675757-1.143608-3.338722-1.724367-3.699457-0.683095-0.422137-0.785431 0.202114-0.2891 1.780651m114.60131 5.531277c-4.244398 8.363434-14.311732 19.495066-20.82288 23.028227-2.067193 1.118024-4.446512 2.491889-5.290787 3.047064-0.844275 0.557733-2.865416 1.486435-4.490005 2.064634-1.627147 0.5782-2.673536 1.335489-2.328151 1.680874 1.215244 1.217802 14.260564-6.380669 20.249796-11.796817 7.562653-6.836065 18.817088-23.501532 17.059462-25.2566-0.258399-0.258399-2.228373 2.995895-4.377435 7.232618m269.159828-5.531277c2.583992 8.212488 13.175799 21.815541 21.357586 27.42613 5.469875 3.750626 14.892491 8.649976 15.4886 8.053867 0.258399-0.258399-2.995895-2.228373-7.232618-4.377436-8.570665-4.349293-19.679271-14.495937-23.002643-21.009643-1.105232-2.16953-2.440721-4.20858-2.970311-4.533498-0.527032-0.327476-1.258737-1.964857-1.627147-3.640614-0.368411-1.675757-1.143608-3.338722-1.724367-3.699457-0.683095-0.422137-0.785431 0.202114-0.2891 1.780651m114.601309 5.531277c-4.244398 8.363434-14.311732 19.495066-20.822879 23.028227-2.067193 1.118024-4.446512 2.491889-5.290787 3.047064-0.844275 0.557733-2.865416 1.486435-4.490005 2.064634-1.627147 0.5782-2.673536 1.335489-2.328151 1.680874 1.215244 1.217802 14.260564-6.380669 20.249796-11.796817 7.562653-6.836065 18.817088-23.501532 17.059461-25.2566-0.258399-0.258399-2.228373 2.995895-4.377435 7.232618M302.403776 382.016227c5.856195 2.507239 28.938148 2.507239 34.794343 0 2.251399-0.96452 2.942169-1.504344 1.535045-1.199893-12.983918 2.814248-24.691192 2.81169-37.864432-0.005117-1.407124-0.301892-0.716354 0.24049 1.535044 1.20501m191.368888-0.015351c5.856195 2.486772 29.948719 2.489331 35.817706 0.005117 2.576316-1.089882 3.098232-1.54272 1.409682-1.217802-15.097163 2.891001-24.609323 2.891001-38.762433-0.002558-1.407124-0.286542-0.716354 0.260958 1.535045 1.215243m192.39225 0.015351c5.856195 2.507239 28.938148 2.507239 34.794343 0 2.251399-0.96452 2.942169-1.504344 1.535044-1.199893-12.983918 2.814248-24.691192 2.81169-37.864432-0.005117-1.407124-0.301892-0.716354 0.24049 1.535045 1.20501M305.01591 641.809725c-3.064972 0.859625-5.828052 1.844612-6.140178 2.192555-0.309567 0.347943 0.585875 0.324918 1.993-0.051168 10.891141-2.914026 24.604206-2.960078 37.864432-0.125362 1.407124 0.301892 0.716354-0.207231-1.535045-1.130816-5.871545-2.404903-24.877955-2.929377-32.182209-0.885209m383.761138 0c-3.064972 0.859625-5.828052 1.844612-6.140178 2.192555-0.309567 0.347943 0.585875 0.324918 1.992999-0.051168 10.891141-2.914026 24.604206-2.960078 37.864432-0.125362 1.407124 0.301892 0.716354-0.207231-1.535044-1.130816-5.871545-2.404903-24.877955-2.929377-32.182209-0.885209m-399.060415 5.84852c-7.352863 3.804352-17.2232 12.316174-21.485507 18.530546-3.778768 5.508252-8.685794 14.935983-8.087126 15.53465 0.258399 0.258399 2.228373-2.995895 4.377435-7.232618 4.349293-8.570665 14.495937-19.679271 21.009643-23.002642 2.16953-1.105232 4.20858-2.440721 4.533499-2.970312 0.327476-0.527032 1.964857-1.258737 3.640614-1.627147 1.675757-0.368411 3.310579-1.094998 3.63038-1.614355 1.031038-1.668082-1.038713-1.020805-7.618938 2.381878m52.08662-3.057298c0 0.22514 3.466642 2.166971 7.703365 4.316034 8.573224 4.351851 19.68183 14.498496 23.005201 21.012202 1.105232 2.16953 2.440721 4.20858 2.970312 4.533498 0.527032 0.327476 1.258737 1.964857 1.627147 3.640614 0.368411 1.675757 1.143608 3.338722 1.724366 3.699457 4.674211 2.888442-7.777559-17.220641-14.723635-23.780398-6.559757-6.193905-22.306756-15.667688-22.306756-13.421407m331.674518 3.057298c-7.352863 3.804352-17.2232 12.316174-21.485507 18.530546-3.778768 5.508252-8.685794 14.935983-8.087127 15.53465 0.258399 0.258399 2.228373-2.995895 4.377436-7.232618 4.349293-8.570665 14.495937-19.679271 21.009643-23.002642 2.16953-1.105232 4.20858-2.440721 4.533498-2.970312 0.327476-0.527032 1.964857-1.258737 3.640614-1.627147 1.675757-0.368411 3.310579-1.094998 3.63038-1.614355 1.031038-1.668082-1.038713-1.020805-7.618937 2.381878m52.08662-3.057298c0 0.22514 3.466642 2.166971 7.703365 4.316034 8.573224 4.351851 19.68183 14.498496 23.005201 21.012202 1.105232 2.16953 2.440721 4.20858 2.970311 4.533498 0.527032 0.327476 1.258737 1.964857 1.627147 3.640614 0.368411 1.675757 1.143608 3.338722 1.724367 3.699457 4.674211 2.888442-7.777559-17.220641-14.723636-23.780398-6.559757-6.193905-22.306756-15.667688-22.306755-13.421407m-467.792035 43.451995c-2.07231 7.140516-1.775535 28.214119 0.475864 33.543282 0.949169 2.251399 1.483876 2.942169 1.184543 1.535044-2.775872-13.114397-2.911468-25.394754-0.383762-35.15252 1.486435-5.748742 0.396553-5.684782-1.276645 0.074194m122.401894-2.786106c2.816807 13.173241 2.819365 24.880514 0.005117 37.864432-0.304451 1.407124 0.235373 0.716354 1.199893-1.535044 2.507239-5.856195 2.507239-28.938148 0-34.794343-0.96452-2.251399-1.506902-2.942169-1.20501-1.535045m261.359244 2.786106c-2.07231 7.140516-1.775535 28.214119 0.475863 33.543282 0.949169 2.251399 1.483876 2.942169 1.184543 1.535044-2.775872-13.114397-2.911468-25.394754-0.383761-35.15252 1.486435-5.748742 0.396553-5.684782-1.276645 0.074194m122.401894-2.786106c2.816807 13.173241 2.819365 24.880514 0.005116 37.864432-0.304451 1.407124 0.235373 0.716354 1.199893-1.535044 1.353398-3.16475 1.752509-7.114931 1.75251-17.397172s-0.399112-14.232421-1.75251-17.397171c-0.96452-2.251399-1.506902-2.942169-1.205009-1.535045m-503.456237 43.109168c2.583992 8.212488 13.175799 21.815541 21.357587 27.426129 5.469875 3.750626 14.892491 8.649976 15.488599 8.053867 0.258399-0.258399-2.995895-2.228373-7.232618-4.377435-8.570665-4.349293-19.679271-14.495937-23.002643-21.009643-1.105232-2.16953-2.440721-4.20858-2.970311-4.533499-0.527032-0.327476-1.258737-1.964857-1.627147-3.640614-0.368411-1.675757-1.143608-3.338722-1.724367-3.699457-0.683095-0.422137-0.785431 0.202114-0.2891 1.780652m114.60131 5.531277c-4.244398 8.363434-14.311732 19.495066-20.82288 23.028227-2.067193 1.118024-4.446512 2.491889-5.290787 3.047063-0.844275 0.557733-2.865416 1.486435-4.490005 2.064635-1.627147 0.5782-2.673536 1.335489-2.328151 1.680874 1.215244 1.217802 14.260564-6.380669 20.249796-11.796818 7.562653-6.836065 18.817088-23.501532 17.059462-25.256599-0.258399-0.258399-2.228373 2.995895-4.377435 7.232618m269.159828-5.531277c2.583992 8.212488 13.175799 21.815541 21.357586 27.426129 5.469875 3.750626 14.892491 8.649976 15.4886 8.053867 0.258399-0.258399-2.995895-2.228373-7.232618-4.377435-8.570665-4.349293-19.679271-14.495937-23.002643-21.009643-1.105232-2.16953-2.440721-4.20858-2.970311-4.533499-0.527032-0.327476-1.258737-1.964857-1.627147-3.640614-0.368411-1.675757-1.143608-3.338722-1.724367-3.699457-0.683095-0.422137-0.785431 0.202114-0.2891 1.780652m114.601309 5.531277c-4.244398 8.363434-14.311732 19.495066-20.822879 23.028227-2.067193 1.118024-4.446512 2.491889-5.290787 3.047063-0.844275 0.557733-2.865416 1.486435-4.490005 2.064635-1.627147 0.5782-2.673536 1.335489-2.328151 1.680874 1.215244 1.217802 14.260564-6.380669 20.249796-11.796818 7.562653-6.836065 18.817088-23.501532 17.059461-25.256599-0.258399-0.258399-2.228373 2.995895-4.377435 7.232618M302.403776 765.777364c3.16475 1.353398 7.114931 1.752509 17.397172 1.752509s14.232421-0.399112 17.397171-1.752509c2.251399-0.96452 2.942169-1.504344 1.535045-1.199893-12.983918 2.814248-24.691192 2.81169-37.864432-0.005117-1.407124-0.301892-0.716354 0.24049 1.535044 1.20501m383.761138 0c3.16475 1.353398 7.114931 1.752509 17.397171 1.752509s14.232421-0.399112 17.397172-1.752509c2.251399-0.96452 2.942169-1.504344 1.535044-1.199893-12.983918 2.814248-24.691192 2.81169-37.864432-0.005117-1.407124-0.301892-0.716354 0.24049 1.535045 1.20501" fill="#6C6C6C" p-id="5759"></path><path d="M317.511173 448.580875c1.55807 0.235373 3.860637 0.230257 5.116815-0.012792 1.258737-0.243049-0.012792-0.437488-2.82704-0.429812-2.814248 0.007675-3.845287 0.207231-2.289775 0.442604m191.867777-0.012792a14.483145 14.483145 0 0 0 4.605133 0c1.266412-0.243049 0.230257-0.442605-2.302566-0.442604s-3.568979 0.199556-2.302567 0.442604m191.893361 0.012792c1.55807 0.235373 3.860637 0.230257 5.116815-0.012792 1.258737-0.243049-0.012792-0.437488-2.827041-0.429812-2.814248 0.007675-3.845287 0.207231-2.289774 0.442604m-235.179059 18.965476l-4.044842 4.349293 4.349292-4.044843c4.044842-3.763418 4.82004-4.653743 4.044843-4.653743-0.166296 0-2.123478 1.957182-4.349293 4.349293m90.104557-0.255841c2.197672 2.251399 4.226489 4.093452 4.507914 4.093452 0.281425 0-1.286879-1.842053-3.484551-4.093452-2.197672-2.251399-4.226489-4.093452-4.507915-4.093452-0.281425 0 1.286879 1.842053 3.484552 4.093452M447.488512 512.318483c0 2.532824 0.199556 3.568979 0.442604 2.302567a14.483145 14.483145 0 0 0 0-4.605133c-0.243049-1.266412-0.442605-0.230257-0.442604 2.302566m127.920379 0c0 2.532824 0.199556 3.568979 0.442605 2.302567a14.483145 14.483145 0 0 0 0-4.605133c-0.243049-1.266412-0.442605-0.230257-0.442605 2.302566M466.141862 557.346457c2.197672 2.251399 4.226489 4.093452 4.507914 4.093452 0.281425 0-1.286879-1.842053-3.484551-4.093452-2.197672-2.251399-4.226489-4.093452-4.507914-4.093452-0.281425 0 1.286879 1.842053 3.484551 4.093452m90.007337 0.255841l-4.044843 4.349292 4.349293-4.044842c2.392111-2.225815 4.349293-4.182996 4.349293-4.349293 0-0.775197-0.890326 0-4.653743 4.044843m-238.638026 18.898956c1.55807 0.235373 3.860637 0.230257 5.116815-0.012792 1.258737-0.243049-0.012792-0.437488-2.82704-0.429812-2.814248 0.007675-3.845287 0.207231-2.289775 0.442604m191.867777-0.012792a14.483145 14.483145 0 0 0 4.605133 0c1.266412-0.243049 0.230257-0.442605-2.302566-0.442604s-3.568979 0.199556-2.302567 0.442604m191.893361 0.012792c1.55807 0.235373 3.860637 0.230257 5.116815-0.012792 1.258737-0.243049-0.012792-0.437488-2.827041-0.429812-2.814248 0.007675-3.845287 0.207231-2.289774 0.442604M447.501304 704.199052c0.007675 2.814248 0.207231 3.845287 0.442605 2.289775 0.235373-1.55807 0.230257-3.860637-0.012793-5.116815-0.243049-1.258737-0.437488 0.012792-0.429812 2.82704m127.920379 0c0.007675 2.814248 0.207231 3.845287 0.442605 2.289775 0.235373-1.55807 0.230257-3.860637-0.012792-5.116815-0.243049-1.258737-0.437488 0.012792-0.429813 2.82704" fill="#848484" p-id="5760"></path></svg>