<?xml version="1.0" standalone="no"?><!DOCTYPE svg PUBLIC "-//W3C//DTD SVG 1.1//EN" "http://www.w3.org/Graphics/SVG/1.1/DTD/svg11.dtd"><svg t="1768637236866" class="icon" viewBox="0 0 1024 1024" version="1.1" xmlns="http://www.w3.org/2000/svg" p-id="158404" xmlns:xlink="http://www.w3.org/1999/xlink" width="200" height="200"><path d="M728 352c0-13.28-10.72-24-24-24H422.88c-13.28 0-24 10.72-24 24s10.72 24 24 24H704c13.28 0 24-10.72 24-24zM512 584h-89.12c-13.28 0-24 10.72-24 24s10.72 24 24 24H512c13.28 0 24-10.72 24-24s-10.72-24-24-24zM512 456h-89.12c-13.28 0-24 10.72-24 24s10.72 24 24 24H512c13.28 0 24-10.72 24-24s-10.72-24-24-24z" fill="#16A353" p-id="158405"></path><path d="M455.36 897.28C260.32 833.6 159.2 644.32 143.52 612.8V232.16c152.48 11.04 330.4-94.4 368.48-118.4 38.08 24 216.16 129.44 368.48 118.4V448c0 13.28 10.72 24 24 24s24-10.72 24-24V204.96c0-7.04-3.2-13.76-8.64-18.4-5.44-4.64-12.64-6.4-19.68-5.28-154.4 27.52-366.88-110.88-368.96-112.32-3.84-2.56-8.48-4-13.12-4h-12.16c-4.64 0-9.28 1.44-13.12 4-2.08 1.44-214.72 139.68-368.96 112.32-7.04-1.28-14.24 0.64-19.68 5.28-5.44 4.64-8.64 11.36-8.64 18.4v413.28c0 3.36 0.8 6.72 2.08 9.92 4.32 9.76 110.4 238.72 342.88 314.72 2.56 0.8 4.96 1.12 7.52 1.12 10.08 0 19.52-6.4 22.88-16.48 4-12.64-2.88-26.24-15.52-30.24z" fill="#16A353" p-id="158406"></path><path d="M320 352m-24 0a24 24 0 1 0 48 0 24 24 0 1 0-48 0Z" fill="#16A353" p-id="158407"></path><path d="M320 480m-24 0a24 24 0 1 0 48 0 24 24 0 1 0-48 0Z" fill="#16A353" p-id="158408"></path><path d="M320 608m-24 0a24 24 0 1 0 48 0 24 24 0 1 0-48 0Z" fill="#16A353" p-id="158409"></path><path d="M732.64 665.12c8.32-10.24 6.72-25.44-3.52-33.76-10.24-8.32-25.44-6.72-33.76 3.52l-74.08 91.36c-5.76 7.2-7.04 17.12-3.04 25.44s12.48 13.6 21.6 13.6h296.32c13.28 0 24-10.72 24-24s-10.72-24-24-24H690.4l42.24-52.16zM936.32 818.56H640c-13.28 0-24 10.72-24 24s10.72 24 24 24h245.92l-42.4 52.32c-8.32 10.24-6.72 25.44 3.52 33.76 4.48 3.68 9.76 5.28 15.04 5.28 7.04 0 13.92-3.04 18.72-8.96l74.08-91.36c5.76-7.2 7.04-17.12 3.04-25.44s-12.48-13.6-21.6-13.6z" fill="#16A353" p-id="158410"></path></svg>