<?xml version="1.0" standalone="no"?><!DOCTYPE svg PUBLIC "-//W3C//DTD SVG 1.1//EN" "http://www.w3.org/Graphics/SVG/1.1/DTD/svg11.dtd"><svg t="1770624924533" class="icon" viewBox="0 0 1024 1024" version="1.1" xmlns="http://www.w3.org/2000/svg" p-id="20315" xmlns:xlink="http://www.w3.org/1999/xlink" width="200" height="200"><path d="M842.666667 808.533333H155.733333c-17.066667 0-32-14.933333-32-32s14.933333-32 32-32h686.933334c17.066667 0 32-14.933333 32-32v-166.4c0-17.066667 14.933333-32 32-32s32 14.933333 32 32v166.4c0 51.2-42.666667 93.866667-96 96z" fill="#0000FF" p-id="20316"></path><path d="M238.933333 938.666667c-8.533333 0-17.066667-4.266667-23.466666-8.533334l-115.2-115.2c-21.333333-21.333333-21.333333-55.466667 0-74.666666l115.2-115.2c12.8-12.8 34.133333-10.666667 44.8 2.133333s10.666667 32 0 42.666667l-108.8 108.8 108.8 108.8c12.8 12.8 12.8 32 0 44.8-4.266667 2.133333-12.8 6.4-21.333334 6.4zM117.333333 512c-17.066667 0-32-14.933333-32-32v-166.4c0-53.333333 42.666667-96 96-96h686.933334c17.066667 0 32 14.933333 32 32s-14.933333 32-32 32H181.333333c-17.066667 0-32 14.933333-32 32v166.4c0 17.066667-14.933333 32-32 32z" fill="#0000FF" p-id="20317"></path><path d="M785.066667 411.733333c-8.533333 0-17.066667-4.266667-23.466667-8.533333-12.8-12.8-12.8-32 0-44.8l108.8-108.8-108.8-108.8c-12.8-12.8-12.8-32 0-44.8 12.8-12.8 32-12.8 44.8 0l115.2 115.2c21.333333 21.333333 21.333333 55.466667 0 74.666667l-115.2 115.2c-4.266667 6.4-12.8 10.666667-21.333333 10.666666z m93.866666-155.733333z" fill="#0000FF" p-id="20318"></path></svg>