<?xml version="1.0" standalone="no"?><!DOCTYPE svg PUBLIC "-//W3C//DTD SVG 1.1//EN" "http://www.w3.org/Graphics/SVG/1.1/DTD/svg11.dtd"><svg t="1780922663282" class="icon" viewBox="0 0 1024 1024" version="1.1" xmlns="http://www.w3.org/2000/svg" p-id="5737" width="200" height="200" xmlns:xlink="http://www.w3.org/1999/xlink"><path d="M768 864c0 17.7-14.3 32-32 32H160c-17.7 0-32-14.3-32-32V160c0-17.7 14.3-32 32-32h576c17.7 0 32 14.3 32 32v704z m0-800H128c-35.3 0-64 28.7-64 64v768c0 35.3 28.7 64 64 64h640c35.3 0 64-28.7 64-64V128c0-35.3-28.7-64-64-64z m192 128H832v64h128v-64z m0 128H832v64h128v-64z m0 256H832v64h128v-64z m-64-128h-64v64h64v-64z m0 256v64h-64v-64h64zM600.5 351.4v40c-22.7 23.2-51.5 43.7-86.3 61.5 36.5 8 78.4 13 125.8 14.9-9 18.4-16.5 34.9-22.4 49.7-66.8-6.3-123.6-18.3-170.3-35.9-41.7 14.9-89.3 27.2-143 37.1h291.9V704h-53.4v-15.1H352.5V704h-53.4V519.8c-7.9 1.4-15.9 2.8-24 4.1-5.9-14.2-12.6-29.6-20.1-46.2 49.8-6.7 93.8-15.1 131.9-25-17.4-10.9-32.6-22.9-45.5-36.1-16.3 13.7-33.2 26-50.9 36.7-7.5-8.8-18.7-20.2-33.7-34.2 42.8-25.9 79.6-58.8 110.3-98.6l55.3 6.2c-6.1 8.5-12.3 16.8-18.6 24.9h196.7v-0.2zM352.5 586h70v-28h-70v28z m0 63.6h70v-28h-70v28zM448.1 433c31.1-12 56.4-25.8 75.8-41.2H380.6c17.9 16.3 40.4 30 67.5 41.2z m94.8 125h-70v28h70v-28z m-70.1 91.6h70v-28h-70v28z" fill="#1296db" p-id="5738"></path></svg>